<?xml version="1.0" encoding="utf-8" standalone="no"?>
<!DOCTYPE svg PUBLIC "-//W3C//DTD SVG 1.1//EN"
  "http://www.w3.org/Graphics/SVG/1.1/DTD/svg11.dtd">
<svg xmlns:xlink="http://www.w3.org/1999/xlink" width="460.8pt" height="345.6pt" viewBox="0 0 460.8 345.6" xmlns="http://www.w3.org/2000/svg" version="1.1">
 <metadata>
  <rdf:RDF xmlns:dc="http://purl.org/dc/elements/1.1/" xmlns:cc="http://creativecommons.org/ns#" xmlns:rdf="http://www.w3.org/1999/02/22-rdf-syntax-ns#">
   <cc:Work>
    <dc:type rdf:resource="http://purl.org/dc/dcmitype/StillImage"/>
    <dc:date>2026-03-22T09:53:28.801655</dc:date>
    <dc:format>image/svg+xml</dc:format>
    <dc:creator>
     <cc:Agent>
      <dc:title>Matplotlib v3.10.8, https://matplotlib.org/</dc:title>
     </cc:Agent>
    </dc:creator>
   </cc:Work>
  </rdf:RDF>
 </metadata>
 <defs>
  <style type="text/css">*{stroke-linejoin: round; stroke-linecap: butt}</style>
 </defs>
 <g id="figure_1">
  <g id="patch_1">
   <path d="M 0 345.6 
L 460.8 345.6 
L 460.8 0 
L 0 0 
z
" style="fill: #ffffff"/>
  </g>
  <g id="axes_1">
   <g id="patch_2">
    <path d="M 57.6 307.584 
L 414.72 307.584 
L 414.72 41.472 
L 57.6 41.472 
z
" style="fill: #ffffff"/>
   </g>
   <g id="matplotlib.axis_1">
    <g id="xtick_1">
     <g id="line2d_1">
      <defs>
       <path id="mb146f5137a" d="M 0 0 
L 0 3.5 
" style="stroke: #000000; stroke-width: 0.8"/>
      </defs>
      <g>
       <use xlink:href="#mb146f5137a" x="79.92" y="307.584" style="stroke: #000000; stroke-width: 0.8"/>
      </g>
     </g>
     <g id="text_1">
      <!-- #1 -->
      <g transform="translate(74.92 321.52775) scale(0.1 -0.1)">
       <defs>
        <path id="TimesNewRomanPSMT-23" d="M 359 -88 
L 650 1334 
L 116 1334 
L 116 1591 
L 700 1591 
L 916 2663 
L 116 2663 
L 116 2913 
L 975 2913 
L 1259 4334 
L 1519 4334 
L 1234 2913 
L 2288 2913 
L 2591 4334 
L 2850 4334 
L 2553 2913 
L 3084 2913 
L 3084 2663 
L 2506 2663 
L 2288 1591 
L 3084 1591 
L 3084 1334 
L 2234 1334 
L 1944 -88 
L 1691 -88 
L 1975 1334 
L 916 1334 
L 619 -88 
L 359 -88 
z
M 963 1591 
L 2022 1591 
L 2247 2663 
L 1181 2663 
L 963 1591 
z
" transform="scale(0.015625)"/>
        <path id="TimesNewRomanPSMT-31" d="M 750 3822 
L 1781 4325 
L 1884 4325 
L 1884 747 
Q 1884 391 1914 303 
Q 1944 216 2037 169 
Q 2131 122 2419 116 
L 2419 0 
L 825 0 
L 825 116 
Q 1125 122 1212 167 
Q 1300 213 1334 289 
Q 1369 366 1369 747 
L 1369 3034 
Q 1369 3497 1338 3628 
Q 1316 3728 1258 3775 
Q 1200 3822 1119 3822 
Q 1003 3822 797 3725 
L 750 3822 
z
" transform="scale(0.015625)"/>
       </defs>
       <use xlink:href="#TimesNewRomanPSMT-23"/>
       <use xlink:href="#TimesNewRomanPSMT-31" transform="translate(50 0)"/>
      </g>
     </g>
    </g>
    <g id="xtick_2">
     <g id="line2d_2">
      <g>
       <use xlink:href="#mb146f5137a" x="124.56" y="307.584" style="stroke: #000000; stroke-width: 0.8"/>
      </g>
     </g>
     <g id="text_2">
      <!-- #2 -->
      <g transform="translate(119.56 321.52775) scale(0.1 -0.1)">
       <defs>
        <path id="TimesNewRomanPSMT-32" d="M 2934 816 
L 2638 0 
L 138 0 
L 138 116 
Q 1241 1122 1691 1759 
Q 2141 2397 2141 2925 
Q 2141 3328 1894 3587 
Q 1647 3847 1303 3847 
Q 991 3847 742 3664 
Q 494 3481 375 3128 
L 259 3128 
Q 338 3706 661 4015 
Q 984 4325 1469 4325 
Q 1984 4325 2329 3994 
Q 2675 3663 2675 3213 
Q 2675 2891 2525 2569 
Q 2294 2063 1775 1497 
Q 997 647 803 472 
L 1909 472 
Q 2247 472 2383 497 
Q 2519 522 2628 598 
Q 2738 675 2819 816 
L 2934 816 
z
" transform="scale(0.015625)"/>
       </defs>
       <use xlink:href="#TimesNewRomanPSMT-23"/>
       <use xlink:href="#TimesNewRomanPSMT-32" transform="translate(50 0)"/>
      </g>
     </g>
    </g>
    <g id="xtick_3">
     <g id="line2d_3">
      <g>
       <use xlink:href="#mb146f5137a" x="169.2" y="307.584" style="stroke: #000000; stroke-width: 0.8"/>
      </g>
     </g>
     <g id="text_3">
      <!-- #3 -->
      <g transform="translate(164.2 321.52775) scale(0.1 -0.1)">
       <defs>
        <path id="TimesNewRomanPSMT-33" d="M 325 3431 
Q 506 3859 782 4092 
Q 1059 4325 1472 4325 
Q 1981 4325 2253 3994 
Q 2459 3747 2459 3466 
Q 2459 3003 1878 2509 
Q 2269 2356 2469 2072 
Q 2669 1788 2669 1403 
Q 2669 853 2319 450 
Q 1863 -75 997 -75 
Q 569 -75 414 31 
Q 259 138 259 259 
Q 259 350 332 419 
Q 406 488 509 488 
Q 588 488 669 463 
Q 722 447 909 348 
Q 1097 250 1169 231 
Q 1284 197 1416 197 
Q 1734 197 1970 444 
Q 2206 691 2206 1028 
Q 2206 1275 2097 1509 
Q 2016 1684 1919 1775 
Q 1784 1900 1550 2001 
Q 1316 2103 1072 2103 
L 972 2103 
L 972 2197 
Q 1219 2228 1467 2375 
Q 1716 2522 1828 2728 
Q 1941 2934 1941 3181 
Q 1941 3503 1739 3701 
Q 1538 3900 1238 3900 
Q 753 3900 428 3381 
L 325 3431 
z
" transform="scale(0.015625)"/>
       </defs>
       <use xlink:href="#TimesNewRomanPSMT-23"/>
       <use xlink:href="#TimesNewRomanPSMT-33" transform="translate(50 0)"/>
      </g>
     </g>
    </g>
    <g id="xtick_4">
     <g id="line2d_4">
      <g>
       <use xlink:href="#mb146f5137a" x="213.84" y="307.584" style="stroke: #000000; stroke-width: 0.8"/>
      </g>
     </g>
     <g id="text_4">
      <!-- #4 -->
      <g transform="translate(208.84 321.52775) scale(0.1 -0.1)">
       <defs>
        <path id="TimesNewRomanPSMT-34" d="M 2978 1563 
L 2978 1119 
L 2409 1119 
L 2409 0 
L 1894 0 
L 1894 1119 
L 100 1119 
L 100 1519 
L 2066 4325 
L 2409 4325 
L 2409 1563 
L 2978 1563 
z
M 1894 1563 
L 1894 3666 
L 406 1563 
L 1894 1563 
z
" transform="scale(0.015625)"/>
       </defs>
       <use xlink:href="#TimesNewRomanPSMT-23"/>
       <use xlink:href="#TimesNewRomanPSMT-34" transform="translate(50 0)"/>
      </g>
     </g>
    </g>
    <g id="xtick_5">
     <g id="line2d_5">
      <g>
       <use xlink:href="#mb146f5137a" x="258.48" y="307.584" style="stroke: #000000; stroke-width: 0.8"/>
      </g>
     </g>
     <g id="text_5">
      <!-- #5 -->
      <g transform="translate(253.48 321.52775) scale(0.1 -0.1)">
       <defs>
        <path id="TimesNewRomanPSMT-35" d="M 2778 4238 
L 2534 3706 
L 1259 3706 
L 981 3138 
Q 1809 3016 2294 2522 
Q 2709 2097 2709 1522 
Q 2709 1188 2573 903 
Q 2438 619 2231 419 
Q 2025 219 1772 97 
Q 1413 -75 1034 -75 
Q 653 -75 479 54 
Q 306 184 306 341 
Q 306 428 378 495 
Q 450 563 559 563 
Q 641 563 702 538 
Q 763 513 909 409 
Q 1144 247 1384 247 
Q 1750 247 2026 523 
Q 2303 800 2303 1197 
Q 2303 1581 2056 1914 
Q 1809 2247 1375 2428 
Q 1034 2569 447 2591 
L 1259 4238 
L 2778 4238 
z
" transform="scale(0.015625)"/>
       </defs>
       <use xlink:href="#TimesNewRomanPSMT-23"/>
       <use xlink:href="#TimesNewRomanPSMT-35" transform="translate(50 0)"/>
      </g>
     </g>
    </g>
    <g id="xtick_6">
     <g id="line2d_6">
      <g>
       <use xlink:href="#mb146f5137a" x="303.12" y="307.584" style="stroke: #000000; stroke-width: 0.8"/>
      </g>
     </g>
     <g id="text_6">
      <!-- #6 -->
      <g transform="translate(298.12 321.52775) scale(0.1 -0.1)">
       <defs>
        <path id="TimesNewRomanPSMT-36" d="M 2869 4325 
L 2869 4209 
Q 2456 4169 2195 4045 
Q 1934 3922 1679 3669 
Q 1425 3416 1258 3105 
Q 1091 2794 978 2366 
Q 1428 2675 1881 2675 
Q 2316 2675 2634 2325 
Q 2953 1975 2953 1425 
Q 2953 894 2631 456 
Q 2244 -75 1606 -75 
Q 1172 -75 869 213 
Q 275 772 275 1663 
Q 275 2231 503 2743 
Q 731 3256 1154 3653 
Q 1578 4050 1965 4187 
Q 2353 4325 2688 4325 
L 2869 4325 
z
M 925 2138 
Q 869 1716 869 1456 
Q 869 1156 980 804 
Q 1091 453 1309 247 
Q 1469 100 1697 100 
Q 1969 100 2183 356 
Q 2397 613 2397 1088 
Q 2397 1622 2184 2012 
Q 1972 2403 1581 2403 
Q 1463 2403 1327 2353 
Q 1191 2303 925 2138 
z
" transform="scale(0.015625)"/>
       </defs>
       <use xlink:href="#TimesNewRomanPSMT-23"/>
       <use xlink:href="#TimesNewRomanPSMT-36" transform="translate(50 0)"/>
      </g>
     </g>
    </g>
    <g id="xtick_7">
     <g id="line2d_7">
      <g>
       <use xlink:href="#mb146f5137a" x="347.76" y="307.584" style="stroke: #000000; stroke-width: 0.8"/>
      </g>
     </g>
     <g id="text_7">
      <!-- #7 -->
      <g transform="translate(342.76 321.52775) scale(0.1 -0.1)">
       <defs>
        <path id="TimesNewRomanPSMT-37" d="M 644 4238 
L 2916 4238 
L 2916 4119 
L 1503 -88 
L 1153 -88 
L 2419 3728 
L 1253 3728 
Q 900 3728 750 3644 
Q 488 3500 328 3200 
L 238 3234 
L 644 4238 
z
" transform="scale(0.015625)"/>
       </defs>
       <use xlink:href="#TimesNewRomanPSMT-23"/>
       <use xlink:href="#TimesNewRomanPSMT-37" transform="translate(50 0)"/>
      </g>
     </g>
    </g>
    <g id="xtick_8">
     <g id="line2d_8">
      <g>
       <use xlink:href="#mb146f5137a" x="392.4" y="307.584" style="stroke: #000000; stroke-width: 0.8"/>
      </g>
     </g>
     <g id="text_8">
      <!-- #8 -->
      <g transform="translate(387.4 321.52775) scale(0.1 -0.1)">
       <defs>
        <path id="TimesNewRomanPSMT-38" d="M 1228 2134 
Q 725 2547 579 2797 
Q 434 3047 434 3316 
Q 434 3728 753 4026 
Q 1072 4325 1600 4325 
Q 2113 4325 2425 4047 
Q 2738 3769 2738 3413 
Q 2738 3175 2569 2928 
Q 2400 2681 1866 2347 
Q 2416 1922 2594 1678 
Q 2831 1359 2831 1006 
Q 2831 559 2490 242 
Q 2150 -75 1597 -75 
Q 994 -75 656 303 
Q 388 606 388 966 
Q 388 1247 577 1523 
Q 766 1800 1228 2134 
z
M 1719 2469 
Q 2094 2806 2194 3001 
Q 2294 3197 2294 3444 
Q 2294 3772 2109 3958 
Q 1925 4144 1606 4144 
Q 1288 4144 1088 3959 
Q 888 3775 888 3528 
Q 888 3366 970 3203 
Q 1053 3041 1206 2894 
L 1719 2469 
z
M 1375 2016 
Q 1116 1797 991 1539 
Q 866 1281 866 981 
Q 866 578 1086 336 
Q 1306 94 1647 94 
Q 1984 94 2187 284 
Q 2391 475 2391 747 
Q 2391 972 2272 1150 
Q 2050 1481 1375 2016 
z
" transform="scale(0.015625)"/>
       </defs>
       <use xlink:href="#TimesNewRomanPSMT-23"/>
       <use xlink:href="#TimesNewRomanPSMT-38" transform="translate(50 0)"/>
      </g>
     </g>
    </g>
   </g>
   <g id="matplotlib.axis_2">
    <g id="ytick_1">
     <g id="line2d_9">
      <defs>
       <path id="mb17322094a" d="M 0 0 
L -3.5 0 
" style="stroke: #000000; stroke-width: 0.8"/>
      </defs>
      <g>
       <use xlink:href="#mb17322094a" x="57.6" y="280.9728" style="stroke: #000000; stroke-width: 0.8"/>
      </g>
     </g>
     <g id="text_9">
      <!-- 60 -->
      <g transform="translate(40.6 284.444675) scale(0.1 -0.1)">
       <defs>
        <path id="TimesNewRomanPSMT-30" d="M 231 2094 
Q 231 2819 450 3342 
Q 669 3866 1031 4122 
Q 1313 4325 1613 4325 
Q 2100 4325 2488 3828 
Q 2972 3213 2972 2159 
Q 2972 1422 2759 906 
Q 2547 391 2217 158 
Q 1888 -75 1581 -75 
Q 975 -75 572 641 
Q 231 1244 231 2094 
z
M 844 2016 
Q 844 1141 1059 588 
Q 1238 122 1591 122 
Q 1759 122 1940 273 
Q 2122 425 2216 781 
Q 2359 1319 2359 2297 
Q 2359 3022 2209 3506 
Q 2097 3866 1919 4016 
Q 1791 4119 1609 4119 
Q 1397 4119 1231 3928 
Q 1006 3669 925 3112 
Q 844 2556 844 2016 
z
" transform="scale(0.015625)"/>
       </defs>
       <use xlink:href="#TimesNewRomanPSMT-36"/>
       <use xlink:href="#TimesNewRomanPSMT-30" transform="translate(50 0)"/>
      </g>
     </g>
    </g>
    <g id="ytick_2">
     <g id="line2d_10">
      <g>
       <use xlink:href="#mb17322094a" x="57.6" y="227.7504" style="stroke: #000000; stroke-width: 0.8"/>
      </g>
     </g>
     <g id="text_10">
      <!-- 80 -->
      <g transform="translate(40.6 231.222275) scale(0.1 -0.1)">
       <use xlink:href="#TimesNewRomanPSMT-38"/>
       <use xlink:href="#TimesNewRomanPSMT-30" transform="translate(50 0)"/>
      </g>
     </g>
    </g>
    <g id="ytick_3">
     <g id="line2d_11">
      <g>
       <use xlink:href="#mb17322094a" x="57.6" y="174.528" style="stroke: #000000; stroke-width: 0.8"/>
      </g>
     </g>
     <g id="text_11">
      <!-- 100 -->
      <g transform="translate(35.6 177.999875) scale(0.1 -0.1)">
       <use xlink:href="#TimesNewRomanPSMT-31"/>
       <use xlink:href="#TimesNewRomanPSMT-30" transform="translate(50 0)"/>
       <use xlink:href="#TimesNewRomanPSMT-30" transform="translate(100 0)"/>
      </g>
     </g>
    </g>
    <g id="ytick_4">
     <g id="line2d_12">
      <g>
       <use xlink:href="#mb17322094a" x="57.6" y="121.3056" style="stroke: #000000; stroke-width: 0.8"/>
      </g>
     </g>
     <g id="text_12">
      <!-- 120 -->
      <g transform="translate(35.6 124.777475) scale(0.1 -0.1)">
       <use xlink:href="#TimesNewRomanPSMT-31"/>
       <use xlink:href="#TimesNewRomanPSMT-32" transform="translate(50 0)"/>
       <use xlink:href="#TimesNewRomanPSMT-30" transform="translate(100 0)"/>
      </g>
     </g>
    </g>
    <g id="ytick_5">
     <g id="line2d_13">
      <g>
       <use xlink:href="#mb17322094a" x="57.6" y="68.0832" style="stroke: #000000; stroke-width: 0.8"/>
      </g>
     </g>
     <g id="text_13">
      <!-- 140 -->
      <g transform="translate(35.6 71.555075) scale(0.1 -0.1)">
       <use xlink:href="#TimesNewRomanPSMT-31"/>
       <use xlink:href="#TimesNewRomanPSMT-34" transform="translate(50 0)"/>
       <use xlink:href="#TimesNewRomanPSMT-30" transform="translate(100 0)"/>
      </g>
     </g>
    </g>
    <g id="text_14">
     <!-- 抗折强度(MPa) -->
     <g transform="translate(29.247031 210.581359) rotate(-90) scale(0.11 -0.11)">
      <defs>
       <path id="SimSun-6297" d="M 3625 5150 
Q 4100 4825 4250 4662 
Q 4400 4500 4400 4350 
Q 4400 4300 4362 4187 
Q 4325 4075 4250 4025 
Q 4175 3975 4125 3975 
Q 4025 3975 3975 4250 
Q 3900 4575 3550 5100 
L 3625 5150 
z
M 5200 3850 
L 5525 4175 
L 6000 3700 
L 3400 3700 
Q 3025 3700 2800 3625 
L 2575 3850 
L 5200 3850 
z
M 3075 3150 
L 3475 2900 
L 4450 2900 
L 4650 3150 
L 5075 2825 
L 4850 2650 
L 4850 225 
Q 4800 -100 5150 -75 
L 5450 -75 
Q 5675 -25 5700 275 
Q 5725 575 5750 1075 
L 5850 1075 
Q 5875 700 5900 375 
Q 5925 50 6150 -25 
Q 5975 -400 5550 -375 
L 5025 -375 
Q 4450 -400 4500 150 
L 4500 2750 
L 3475 2750 
Q 3500 1350 3275 662 
Q 3050 -25 1875 -625 
L 1825 -550 
Q 2800 100 2950 675 
Q 3100 1250 3100 2125 
Q 3100 2750 3075 3150 
z
M 250 1925 
Q 350 1900 1350 2275 
L 1350 3550 
L 775 3550 
L 475 3500 
L 275 3700 
L 1350 3700 
Q 1350 4525 1325 5150 
L 1925 4875 
L 1700 4700 
L 1700 3700 
L 2000 3700 
L 2275 3975 
L 2700 3550 
L 1700 3550 
L 1700 2400 
L 2600 2750 
L 2650 2650 
L 1700 2150 
L 1700 25 
Q 1675 -450 1125 -650 
Q 1150 -350 400 -75 
L 400 25 
Q 975 -75 1162 -62 
Q 1350 -50 1350 225 
L 1350 2000 
Q 975 1800 812 1687 
Q 650 1575 575 1450 
L 250 1925 
z
" transform="scale(0.015625)"/>
       <path id="SimSun-6298" d="M 4625 -625 
Q 4650 125 4650 500 
L 4650 2825 
L 3450 2825 
Q 3400 525 2000 -600 
L 1950 -525 
Q 2475 50 2775 925 
Q 3075 1800 3087 2950 
Q 3100 4100 3075 4750 
L 3450 4500 
Q 5075 4800 5425 5125 
L 5850 4650 
Q 5425 4625 4850 4550 
Q 4275 4475 3450 4375 
L 3450 2975 
L 5300 2975 
L 5625 3300 
L 6100 2825 
L 5000 2825 
L 5000 300 
Q 5000 -75 5025 -475 
L 4625 -625 
z
M 300 1975 
Q 500 1975 1550 2375 
L 1550 3625 
L 825 3625 
L 525 3575 
L 325 3775 
L 1550 3775 
Q 1550 4600 1525 5225 
L 2125 4950 
L 1900 4775 
L 1900 3775 
L 2225 3775 
L 2500 4050 
L 2925 3625 
L 1900 3625 
L 1900 2500 
L 2825 2850 
L 2850 2750 
L 1900 2250 
L 1900 225 
Q 1925 -375 1350 -575 
Q 1350 -250 600 25 
L 600 125 
Q 1150 25 1350 25 
Q 1550 25 1550 300 
L 1550 2075 
Q 675 1650 600 1500 
L 300 1975 
z
" transform="scale(0.015625)"/>
       <path id="SimSun-5f3a" d="M 3400 4675 
L 3400 3750 
L 5075 3750 
L 5075 4675 
L 3400 4675 
z
M 3150 2450 
L 3150 1450 
L 4075 1450 
L 4075 2450 
L 3150 2450 
z
M 4400 2450 
L 4400 1450 
L 5350 1450 
L 5350 2450 
L 4400 2450 
z
M 3050 5025 
L 3400 4825 
L 5025 4825 
L 5200 5075 
L 5600 4750 
L 5400 4600 
Q 5400 3700 5425 3450 
L 5075 3325 
L 5075 3600 
L 4075 3600 
L 4600 3350 
L 4400 3175 
L 4400 2600 
L 5300 2600 
L 5475 2825 
L 5850 2525 
L 5675 2375 
Q 5675 1600 5700 1225 
L 5350 1075 
L 5350 1300 
L 4400 1300 
L 4400 125 
Q 5050 175 5525 225 
Q 5325 575 5050 900 
L 5100 950 
Q 5500 700 5762 437 
Q 6025 175 6050 0 
Q 6075 -175 6000 -300 
Q 5925 -425 5850 -462 
Q 5775 -500 5750 -325 
Q 5700 -150 5600 50 
Q 4000 -150 3375 -262 
Q 2750 -375 2550 -525 
L 2300 -50 
Q 3125 25 4075 100 
L 4075 1300 
L 3150 1300 
L 3150 1100 
L 2800 900 
Q 2825 1375 2825 1962 
Q 2825 2550 2800 2800 
L 3200 2600 
L 4075 2600 
L 4075 3600 
L 3400 3600 
L 3400 3375 
L 3050 3250 
Q 3075 3575 3075 4062 
Q 3075 4550 3050 5025 
z
M 400 4700 
L 1900 4700 
L 2075 4950 
L 2475 4650 
L 2275 4500 
Q 2275 3525 2300 3025 
L 1950 2875 
L 1950 3150 
L 1100 3150 
L 975 2025 
L 1850 2025 
L 2025 2275 
L 2425 1975 
L 2250 1800 
Q 2125 600 1950 100 
Q 1775 -400 1200 -550 
Q 1250 -250 700 50 
L 725 150 
Q 1025 50 1225 0 
Q 1425 -50 1537 87 
Q 1650 225 1725 587 
Q 1800 950 1900 1875 
L 975 1875 
L 800 1675 
L 500 1950 
Q 650 2050 700 2487 
Q 750 2925 775 3525 
L 1125 3300 
L 1950 3300 
L 1950 4550 
L 875 4550 
L 600 4500 
L 400 4700 
z
" transform="scale(0.015625)"/>
       <path id="SimSun-5ea6" d="M 2550 2025 
Q 2575 2525 2575 3175 
L 1925 3175 
L 1625 3125 
L 1425 3325 
L 2575 3325 
Q 2575 3700 2550 4150 
L 3100 3875 
L 2900 3750 
L 2900 3325 
L 4300 3325 
Q 4300 3750 4275 4125 
L 4850 3875 
L 4625 3725 
L 4625 3325 
L 5100 3325 
L 5425 3650 
L 5900 3175 
L 4625 3175 
Q 4625 2450 4650 2225 
L 4300 2075 
L 4300 2300 
L 2900 2300 
L 2900 2175 
L 2550 2025 
z
M 4875 1500 
Q 4300 775 3900 425 
Q 4700 -75 6025 -125 
L 6025 -225 
Q 5625 -300 5550 -550 
Q 4375 -325 3675 225 
Q 2475 -450 1075 -625 
L 1050 -525 
Q 2375 -275 3450 450 
Q 2975 925 2575 1625 
L 2325 1625 
L 2100 1575 
L 1900 1775 
L 4525 1775 
L 4750 2000 
L 5125 1625 
L 4875 1500 
z
M 2700 1625 
Q 3175 975 3650 625 
Q 4150 1100 4500 1625 
L 2700 1625 
z
M 2900 3175 
L 2900 2450 
L 4300 2450 
L 4300 3175 
L 2900 3175 
z
M 975 4650 
L 1400 4400 
L 3375 4400 
Q 3350 4550 3262 4725 
Q 3175 4900 2900 5225 
L 2975 5275 
Q 3550 5025 3637 4887 
Q 3725 4750 3725 4725 
Q 3725 4575 3525 4400 
L 5150 4400 
L 5500 4750 
L 6000 4250 
L 1375 4250 
Q 1400 2750 1287 1912 
Q 1175 1075 925 475 
Q 675 -125 300 -625 
L 225 -575 
Q 725 300 862 1250 
Q 1000 2200 1012 3187 
Q 1025 4175 975 4650 
z
" transform="scale(0.015625)"/>
       <path id="TimesNewRomanPSMT-28" d="M 1988 -1253 
L 1988 -1369 
Q 1516 -1131 1200 -813 
Q 750 -359 506 256 
Q 263 872 263 1534 
Q 263 2503 741 3301 
Q 1219 4100 1988 4444 
L 1988 4313 
Q 1603 4100 1356 3731 
Q 1109 3363 987 2797 
Q 866 2231 866 1616 
Q 866 947 969 400 
Q 1050 -31 1165 -292 
Q 1281 -553 1476 -793 
Q 1672 -1034 1988 -1253 
z
" transform="scale(0.015625)"/>
       <path id="TimesNewRomanPSMT-4d" d="M 2619 0 
L 981 3566 
L 981 734 
Q 981 344 1066 247 
Q 1181 116 1431 116 
L 1581 116 
L 1581 0 
L 106 0 
L 106 116 
L 256 116 
Q 525 116 638 278 
Q 706 378 706 734 
L 706 3503 
Q 706 3784 644 3909 
Q 600 4000 483 4061 
Q 366 4122 106 4122 
L 106 4238 
L 1306 4238 
L 2844 922 
L 4356 4238 
L 5556 4238 
L 5556 4122 
L 5409 4122 
Q 5138 4122 5025 3959 
Q 4956 3859 4956 3503 
L 4956 734 
Q 4956 344 5044 247 
Q 5159 116 5409 116 
L 5556 116 
L 5556 0 
L 3756 0 
L 3756 116 
L 3906 116 
Q 4178 116 4288 278 
Q 4356 378 4356 734 
L 4356 3566 
L 2722 0 
L 2619 0 
z
" transform="scale(0.015625)"/>
       <path id="TimesNewRomanPSMT-50" d="M 1313 1984 
L 1313 750 
Q 1313 350 1400 253 
Q 1519 116 1759 116 
L 1922 116 
L 1922 0 
L 106 0 
L 106 116 
L 266 116 
Q 534 116 650 291 
Q 713 388 713 750 
L 713 3488 
Q 713 3888 628 3984 
Q 506 4122 266 4122 
L 106 4122 
L 106 4238 
L 1659 4238 
Q 2228 4238 2556 4120 
Q 2884 4003 3109 3725 
Q 3334 3447 3334 3066 
Q 3334 2547 2992 2222 
Q 2650 1897 2025 1897 
Q 1872 1897 1694 1919 
Q 1516 1941 1313 1984 
z
M 1313 2163 
Q 1478 2131 1606 2115 
Q 1734 2100 1825 2100 
Q 2150 2100 2386 2351 
Q 2622 2603 2622 3003 
Q 2622 3278 2509 3514 
Q 2397 3750 2190 3867 
Q 1984 3984 1722 3984 
Q 1563 3984 1313 3925 
L 1313 2163 
z
" transform="scale(0.015625)"/>
       <path id="TimesNewRomanPSMT-61" d="M 1822 413 
Q 1381 72 1269 19 
Q 1100 -59 909 -59 
Q 613 -59 420 144 
Q 228 347 228 678 
Q 228 888 322 1041 
Q 450 1253 767 1440 
Q 1084 1628 1822 1897 
L 1822 2009 
Q 1822 2438 1686 2597 
Q 1550 2756 1291 2756 
Q 1094 2756 978 2650 
Q 859 2544 859 2406 
L 866 2225 
Q 866 2081 792 2003 
Q 719 1925 600 1925 
Q 484 1925 411 2006 
Q 338 2088 338 2228 
Q 338 2497 613 2722 
Q 888 2947 1384 2947 
Q 1766 2947 2009 2819 
Q 2194 2722 2281 2516 
Q 2338 2381 2338 1966 
L 2338 994 
Q 2338 584 2353 492 
Q 2369 400 2405 369 
Q 2441 338 2488 338 
Q 2538 338 2575 359 
Q 2641 400 2828 588 
L 2828 413 
Q 2478 -56 2159 -56 
Q 2006 -56 1915 50 
Q 1825 156 1822 413 
z
M 1822 616 
L 1822 1706 
Q 1350 1519 1213 1441 
Q 966 1303 859 1153 
Q 753 1003 753 825 
Q 753 600 887 451 
Q 1022 303 1197 303 
Q 1434 303 1822 616 
z
" transform="scale(0.015625)"/>
       <path id="TimesNewRomanPSMT-29" d="M 144 4313 
L 144 4444 
Q 619 4209 934 3891 
Q 1381 3434 1625 2820 
Q 1869 2206 1869 1541 
Q 1869 572 1392 -226 
Q 916 -1025 144 -1369 
L 144 -1253 
Q 528 -1038 776 -670 
Q 1025 -303 1145 264 
Q 1266 831 1266 1447 
Q 1266 2113 1163 2663 
Q 1084 3094 967 3353 
Q 850 3613 656 3853 
Q 463 4094 144 4313 
z
" transform="scale(0.015625)"/>
      </defs>
      <use xlink:href="#SimSun-6297"/>
      <use xlink:href="#SimSun-6298" transform="translate(100 0)"/>
      <use xlink:href="#SimSun-5f3a" transform="translate(200 0)"/>
      <use xlink:href="#SimSun-5ea6" transform="translate(300 0)"/>
      <use xlink:href="#TimesNewRomanPSMT-28" transform="translate(400 0)"/>
      <use xlink:href="#TimesNewRomanPSMT-4d" transform="translate(433.300781 0)"/>
      <use xlink:href="#TimesNewRomanPSMT-50" transform="translate(522.216797 0)"/>
      <use xlink:href="#TimesNewRomanPSMT-61" transform="translate(577.832031 0)"/>
      <use xlink:href="#TimesNewRomanPSMT-29" transform="translate(622.216797 0)"/>
     </g>
    </g>
   </g>
   <g id="patch_3">
    <path d="M 68.76 151.935091 
L 91.08 151.935091 
L 91.08 110.528064 
L 68.76 110.528064 
L 68.76 151.935091 
z
" clip-path="url(#pbb775f1c3a)" style="fill: #1f77b4; stroke: #000000; stroke-linejoin: miter"/>
   </g>
   <g id="line2d_14">
    <path d="M 79.92 151.935091 
L 79.92 151.935091 
" clip-path="url(#pbb775f1c3a)" style="fill: none; stroke: #000000; stroke-linecap: square"/>
   </g>
   <g id="line2d_15">
    <path d="M 79.92 110.528064 
L 79.92 103.928486 
" clip-path="url(#pbb775f1c3a)" style="fill: none; stroke: #000000; stroke-linecap: square"/>
   </g>
   <g id="line2d_16">
    <path d="M 74.34 151.935091 
L 85.5 151.935091 
" clip-path="url(#pbb775f1c3a)" style="fill: none; stroke: #000000; stroke-linecap: square"/>
   </g>
   <g id="line2d_17">
    <path d="M 74.34 103.928486 
L 85.5 103.928486 
" clip-path="url(#pbb775f1c3a)" style="fill: none; stroke: #000000; stroke-linecap: square"/>
   </g>
   <g id="line2d_18">
    <defs>
     <path id="m12f286f5e4" d="M 0 3 
C 0.795609 3 1.55874 2.683901 2.12132 2.12132 
C 2.683901 1.55874 3 0.795609 3 0 
C 3 -0.795609 2.683901 -1.55874 2.12132 -2.12132 
C 1.55874 -2.683901 0.795609 -3 0 -3 
C -0.795609 -3 -1.55874 -2.683901 -2.12132 -2.12132 
C -2.683901 -1.55874 -3 -0.795609 -3 0 
C -3 0.795609 -2.683901 1.55874 -2.12132 2.12132 
C -1.55874 2.683901 -0.795609 3 0 3 
z
" style="stroke: #000000"/>
    </defs>
    <g clip-path="url(#pbb775f1c3a)">
     <use xlink:href="#m12f286f5e4" x="79.92" y="234.083866" style="fill-opacity: 0; stroke: #000000"/>
    </g>
   </g>
   <g id="patch_4">
    <path d="M 113.4 155.23488 
L 135.72 155.23488 
L 135.72 107.813722 
L 113.4 107.813722 
L 113.4 155.23488 
z
" clip-path="url(#pbb775f1c3a)" style="fill: #1f77b4; stroke: #000000; stroke-linejoin: miter"/>
   </g>
   <g id="line2d_19">
    <path d="M 124.56 155.23488 
L 124.56 178.998682 
" clip-path="url(#pbb775f1c3a)" style="fill: none; stroke: #000000; stroke-linecap: square"/>
   </g>
   <g id="line2d_20">
    <path d="M 124.56 107.813722 
L 124.56 88.813325 
" clip-path="url(#pbb775f1c3a)" style="fill: none; stroke: #000000; stroke-linecap: square"/>
   </g>
   <g id="line2d_21">
    <path d="M 118.98 178.998682 
L 130.14 178.998682 
" clip-path="url(#pbb775f1c3a)" style="fill: none; stroke: #000000; stroke-linecap: square"/>
   </g>
   <g id="line2d_22">
    <path d="M 118.98 88.813325 
L 130.14 88.813325 
" clip-path="url(#pbb775f1c3a)" style="fill: none; stroke: #000000; stroke-linecap: square"/>
   </g>
   <g id="line2d_23"/>
   <g id="patch_5">
    <path d="M 158.04 177.535066 
L 180.36 177.535066 
L 180.36 83.570918 
L 158.04 83.570918 
L 158.04 177.535066 
z
" clip-path="url(#pbb775f1c3a)" style="fill: #1f77b4; stroke: #000000; stroke-linejoin: miter"/>
   </g>
   <g id="line2d_24">
    <path d="M 169.2 177.535066 
L 169.2 203.959987 
" clip-path="url(#pbb775f1c3a)" style="fill: none; stroke: #000000; stroke-linecap: square"/>
   </g>
   <g id="line2d_25">
    <path d="M 169.2 83.570918 
L 169.2 75.161779 
" clip-path="url(#pbb775f1c3a)" style="fill: none; stroke: #000000; stroke-linecap: square"/>
   </g>
   <g id="line2d_26">
    <path d="M 163.62 203.959987 
L 174.78 203.959987 
" clip-path="url(#pbb775f1c3a)" style="fill: none; stroke: #000000; stroke-linecap: square"/>
   </g>
   <g id="line2d_27">
    <path d="M 163.62 75.161779 
L 174.78 75.161779 
" clip-path="url(#pbb775f1c3a)" style="fill: none; stroke: #000000; stroke-linecap: square"/>
   </g>
   <g id="line2d_28"/>
   <g id="patch_6">
    <path d="M 202.68 136.128038 
L 225 136.128038 
L 225 109.091059 
L 202.68 109.091059 
L 202.68 136.128038 
z
" clip-path="url(#pbb775f1c3a)" style="fill: #1f77b4; stroke: #000000; stroke-linejoin: miter"/>
   </g>
   <g id="line2d_29">
    <path d="M 213.84 136.128038 
L 213.84 171.387878 
" clip-path="url(#pbb775f1c3a)" style="fill: none; stroke: #000000; stroke-linecap: square"/>
   </g>
   <g id="line2d_30">
    <path d="M 213.84 109.091059 
L 213.84 93.975898 
" clip-path="url(#pbb775f1c3a)" style="fill: none; stroke: #000000; stroke-linecap: square"/>
   </g>
   <g id="line2d_31">
    <path d="M 208.26 171.387878 
L 219.42 171.387878 
" clip-path="url(#pbb775f1c3a)" style="fill: none; stroke: #000000; stroke-linecap: square"/>
   </g>
   <g id="line2d_32">
    <path d="M 208.26 93.975898 
L 219.42 93.975898 
" clip-path="url(#pbb775f1c3a)" style="fill: none; stroke: #000000; stroke-linecap: square"/>
   </g>
   <g id="line2d_33"/>
   <g id="patch_7">
    <path d="M 247.32 223.199885 
L 269.64 223.199885 
L 269.64 153.185818 
L 247.32 153.185818 
L 247.32 223.199885 
z
" clip-path="url(#pbb775f1c3a)" style="fill: #1f77b4; stroke: #000000; stroke-linejoin: miter"/>
   </g>
   <g id="line2d_34">
    <path d="M 258.48 223.199885 
L 258.48 289.488384 
" clip-path="url(#pbb775f1c3a)" style="fill: none; stroke: #000000; stroke-linecap: square"/>
   </g>
   <g id="line2d_35">
    <path d="M 258.48 153.185818 
L 258.48 124.126387 
" clip-path="url(#pbb775f1c3a)" style="fill: none; stroke: #000000; stroke-linecap: square"/>
   </g>
   <g id="line2d_36">
    <path d="M 252.9 289.488384 
L 264.06 289.488384 
" clip-path="url(#pbb775f1c3a)" style="fill: none; stroke: #000000; stroke-linecap: square"/>
   </g>
   <g id="line2d_37">
    <path d="M 252.9 124.126387 
L 264.06 124.126387 
" clip-path="url(#pbb775f1c3a)" style="fill: none; stroke: #000000; stroke-linecap: square"/>
   </g>
   <g id="line2d_38"/>
   <g id="patch_8">
    <path d="M 291.96 196.216128 
L 314.28 196.216128 
L 314.28 165.639859 
L 291.96 165.639859 
L 291.96 196.216128 
z
" clip-path="url(#pbb775f1c3a)" style="fill: #1f77b4; stroke: #000000; stroke-linejoin: miter"/>
   </g>
   <g id="line2d_39">
    <path d="M 303.12 196.216128 
L 303.12 197.413632 
" clip-path="url(#pbb775f1c3a)" style="fill: none; stroke: #000000; stroke-linecap: square"/>
   </g>
   <g id="line2d_40">
    <path d="M 303.12 165.639859 
L 303.12 124.17961 
" clip-path="url(#pbb775f1c3a)" style="fill: none; stroke: #000000; stroke-linecap: square"/>
   </g>
   <g id="line2d_41">
    <path d="M 297.54 197.413632 
L 308.7 197.413632 
" clip-path="url(#pbb775f1c3a)" style="fill: none; stroke: #000000; stroke-linecap: square"/>
   </g>
   <g id="line2d_42">
    <path d="M 297.54 124.17961 
L 308.7 124.17961 
" clip-path="url(#pbb775f1c3a)" style="fill: none; stroke: #000000; stroke-linecap: square"/>
   </g>
   <g id="line2d_43"/>
   <g id="patch_9">
    <path d="M 336.6 254.601101 
L 358.92 254.601101 
L 358.92 166.065638 
L 336.6 166.065638 
L 336.6 254.601101 
z
" clip-path="url(#pbb775f1c3a)" style="fill: #1f77b4; stroke: #000000; stroke-linejoin: miter"/>
   </g>
   <g id="line2d_44">
    <path d="M 347.76 254.601101 
L 347.76 298.72247 
" clip-path="url(#pbb775f1c3a)" style="fill: none; stroke: #000000; stroke-linecap: square"/>
   </g>
   <g id="line2d_45">
    <path d="M 347.76 166.065638 
L 347.76 121.145933 
" clip-path="url(#pbb775f1c3a)" style="fill: none; stroke: #000000; stroke-linecap: square"/>
   </g>
   <g id="line2d_46">
    <path d="M 342.18 298.72247 
L 353.34 298.72247 
" clip-path="url(#pbb775f1c3a)" style="fill: none; stroke: #000000; stroke-linecap: square"/>
   </g>
   <g id="line2d_47">
    <path d="M 342.18 121.145933 
L 353.34 121.145933 
" clip-path="url(#pbb775f1c3a)" style="fill: none; stroke: #000000; stroke-linecap: square"/>
   </g>
   <g id="line2d_48"/>
   <g id="patch_10">
    <path d="M 381.24 218.196979 
L 403.56 218.196979 
L 403.56 206.115494 
L 381.24 206.115494 
L 381.24 218.196979 
z
" clip-path="url(#pbb775f1c3a)" style="fill: #1f77b4; stroke: #000000; stroke-linejoin: miter"/>
   </g>
   <g id="line2d_49">
    <path d="M 392.4 218.196979 
L 392.4 218.196979 
" clip-path="url(#pbb775f1c3a)" style="fill: none; stroke: #000000; stroke-linecap: square"/>
   </g>
   <g id="line2d_50">
    <path d="M 392.4 206.115494 
L 392.4 195.098458 
" clip-path="url(#pbb775f1c3a)" style="fill: none; stroke: #000000; stroke-linecap: square"/>
   </g>
   <g id="line2d_51">
    <path d="M 386.82 218.196979 
L 397.98 218.196979 
" clip-path="url(#pbb775f1c3a)" style="fill: none; stroke: #000000; stroke-linecap: square"/>
   </g>
   <g id="line2d_52">
    <path d="M 386.82 195.098458 
L 397.98 195.098458 
" clip-path="url(#pbb775f1c3a)" style="fill: none; stroke: #000000; stroke-linecap: square"/>
   </g>
   <g id="line2d_53">
    <g clip-path="url(#pbb775f1c3a)">
     <use xlink:href="#m12f286f5e4" x="392.4" y="242.652672" style="fill-opacity: 0; stroke: #000000"/>
    </g>
   </g>
   <g id="line2d_54">
    <path d="M 68.76 141.689779 
L 91.08 141.689779 
" clip-path="url(#pbb775f1c3a)" style="fill: none; stroke: #ff7f0e"/>
   </g>
   <g id="line2d_55">
    <defs>
     <path id="mfbc8f1b215" d="M -2.5 0 
L 2.5 0 
M 0 2.5 
L 0 -2.5 
" style="stroke: #000000"/>
    </defs>
    <g clip-path="url(#pbb775f1c3a)">
     <use xlink:href="#mfbc8f1b215" x="79.92" y="148.433057" style="stroke: #000000"/>
    </g>
   </g>
   <g id="line2d_56">
    <path d="M 113.4 153.052762 
L 135.72 153.052762 
" clip-path="url(#pbb775f1c3a)" style="fill: none; stroke: #ff7f0e"/>
   </g>
   <g id="line2d_57">
    <g clip-path="url(#pbb775f1c3a)">
     <use xlink:href="#mfbc8f1b215" x="124.56" y="136.782674" style="stroke: #000000"/>
    </g>
   </g>
   <g id="line2d_58">
    <path d="M 158.04 115.397914 
L 180.36 115.397914 
" clip-path="url(#pbb775f1c3a)" style="fill: none; stroke: #ff7f0e"/>
   </g>
   <g id="line2d_59">
    <g clip-path="url(#pbb775f1c3a)">
     <use xlink:href="#mfbc8f1b215" x="169.2" y="131.125133" style="stroke: #000000"/>
    </g>
   </g>
   <g id="line2d_60">
    <path d="M 202.68 123.141773 
L 225 123.141773 
" clip-path="url(#pbb775f1c3a)" style="fill: none; stroke: #ff7f0e"/>
   </g>
   <g id="line2d_61">
    <g clip-path="url(#pbb775f1c3a)">
     <use xlink:href="#mfbc8f1b215" x="213.84" y="126.744929" style="stroke: #000000"/>
    </g>
   </g>
   <g id="line2d_62">
    <path d="M 247.32 179.797018 
L 269.64 179.797018 
" clip-path="url(#pbb775f1c3a)" style="fill: none; stroke: #ff7f0e"/>
   </g>
   <g id="line2d_63">
    <g clip-path="url(#pbb775f1c3a)">
     <use xlink:href="#mfbc8f1b215" x="258.48" y="193.959498" style="stroke: #000000"/>
    </g>
   </g>
   <g id="line2d_64">
    <path d="M 291.96 171.600768 
L 314.28 171.600768 
" clip-path="url(#pbb775f1c3a)" style="fill: none; stroke: #ff7f0e"/>
   </g>
   <g id="line2d_65">
    <g clip-path="url(#pbb775f1c3a)">
     <use xlink:href="#mfbc8f1b215" x="303.12" y="171.009999" style="stroke: #000000"/>
    </g>
   </g>
   <g id="line2d_66">
    <path d="M 336.6 194.885568 
L 358.92 194.885568 
" clip-path="url(#pbb775f1c3a)" style="fill: none; stroke: #ff7f0e"/>
   </g>
   <g id="line2d_67">
    <g clip-path="url(#pbb775f1c3a)">
     <use xlink:href="#mfbc8f1b215" x="347.76" y="207.084142" style="stroke: #000000"/>
    </g>
   </g>
   <g id="line2d_68">
    <path d="M 381.24 208.696781 
L 403.56 208.696781 
" clip-path="url(#pbb775f1c3a)" style="fill: none; stroke: #ff7f0e"/>
   </g>
   <g id="line2d_69">
    <g clip-path="url(#pbb775f1c3a)">
     <use xlink:href="#mfbc8f1b215" x="392.4" y="214.152077" style="stroke: #000000"/>
    </g>
   </g>
   <g id="patch_11">
    <path d="M 57.6 307.584 
L 57.6 41.472 
" style="fill: none; stroke: #000000; stroke-width: 0.8; stroke-linejoin: miter; stroke-linecap: square"/>
   </g>
   <g id="patch_12">
    <path d="M 414.72 307.584 
L 414.72 41.472 
" style="fill: none; stroke: #000000; stroke-width: 0.8; stroke-linejoin: miter; stroke-linecap: square"/>
   </g>
   <g id="patch_13">
    <path d="M 57.6 307.584 
L 414.72 307.584 
" style="fill: none; stroke: #000000; stroke-width: 0.8; stroke-linejoin: miter; stroke-linecap: square"/>
   </g>
   <g id="patch_14">
    <path d="M 57.6 41.472 
L 414.72 41.472 
" style="fill: none; stroke: #000000; stroke-width: 0.8; stroke-linejoin: miter; stroke-linecap: square"/>
   </g>
  </g>
 </g>
 <defs>
  <clipPath id="pbb775f1c3a">
   <rect x="57.6" y="41.472" width="357.12" height="266.112"/>
  </clipPath>
 </defs>
</svg>
