<?xml version="1.0" encoding="utf-8" standalone="no"?>
<!DOCTYPE svg PUBLIC "-//W3C//DTD SVG 1.1//EN"
  "http://www.w3.org/Graphics/SVG/1.1/DTD/svg11.dtd">
<svg xmlns:xlink="http://www.w3.org/1999/xlink" width="720pt" height="432pt" viewBox="0 0 720 432" xmlns="http://www.w3.org/2000/svg" version="1.1">
 <metadata>
  <rdf:RDF xmlns:dc="http://purl.org/dc/elements/1.1/" xmlns:cc="http://creativecommons.org/ns#" xmlns:rdf="http://www.w3.org/1999/02/22-rdf-syntax-ns#">
   <cc:Work>
    <dc:type rdf:resource="http://purl.org/dc/dcmitype/StillImage"/>
    <dc:date>2026-03-26T21:35:44.720091</dc:date>
    <dc:format>image/svg+xml</dc:format>
    <dc:creator>
     <cc:Agent>
      <dc:title>Matplotlib v3.10.8, https://matplotlib.org/</dc:title>
     </cc:Agent>
    </dc:creator>
   </cc:Work>
  </rdf:RDF>
 </metadata>
 <defs>
  <style type="text/css">*{stroke-linejoin: round; stroke-linecap: butt}</style>
 </defs>
 <g id="figure_1">
  <g id="patch_1">
   <path d="M 0 432 
L 720 432 
L 720 0 
L 0 0 
z
" style="fill: #ffffff"/>
  </g>
  <g id="axes_1">
   <g id="patch_2">
    <path d="M 49.7225 404.12 
L 709.2 404.12 
L 709.2 27.015 
L 49.7225 27.015 
z
" style="fill: #ffffff"/>
   </g>
   <g id="patch_3">
    <path d="M 79.69875 404.12 
L 141.188494 404.12 
L 141.188494 127.026151 
L 79.69875 127.026151 
z
" clip-path="url(#p645eddb106)" style="fill: #1f77b4; opacity: 0.8; stroke: #000000; stroke-linejoin: miter"/>
   </g>
   <g id="patch_4">
    <path d="M 156.560929 404.12 
L 218.050673 404.12 
L 218.050673 146.247145 
L 156.560929 146.247145 
z
" clip-path="url(#p645eddb106)" style="fill: #1f77b4; opacity: 0.8; stroke: #000000; stroke-linejoin: miter"/>
   </g>
   <g id="patch_5">
    <path d="M 233.423109 404.12 
L 294.912853 404.12 
L 294.912853 95.533893 
L 233.423109 95.533893 
z
" clip-path="url(#p645eddb106)" style="fill: #1f77b4; opacity: 0.8; stroke: #000000; stroke-linejoin: miter"/>
   </g>
   <g id="patch_6">
    <path d="M 310.285288 404.12 
L 371.775032 404.12 
L 371.775032 126.782802 
L 310.285288 126.782802 
z
" clip-path="url(#p645eddb106)" style="fill: #1f77b4; opacity: 0.8; stroke: #000000; stroke-linejoin: miter"/>
   </g>
   <g id="patch_7">
    <path d="M 387.147468 404.12 
L 448.637212 404.12 
L 448.637212 149.423213 
L 387.147468 149.423213 
z
" clip-path="url(#p645eddb106)" style="fill: #1f77b4; opacity: 0.8; stroke: #000000; stroke-linejoin: miter"/>
   </g>
   <g id="patch_8">
    <path d="M 464.009647 404.12 
L 525.499391 404.12 
L 525.499391 176.236598 
L 464.009647 176.236598 
z
" clip-path="url(#p645eddb106)" style="fill: #1f77b4; opacity: 0.8; stroke: #000000; stroke-linejoin: miter"/>
   </g>
   <g id="patch_9">
    <path d="M 540.871827 404.12 
L 602.361571 404.12 
L 602.361571 156.782444 
L 540.871827 156.782444 
z
" clip-path="url(#p645eddb106)" style="fill: #1f77b4; opacity: 0.8; stroke: #000000; stroke-linejoin: miter"/>
   </g>
   <g id="patch_10">
    <path d="M 617.734006 404.12 
L 679.22375 404.12 
L 679.22375 204.010053 
L 617.734006 204.010053 
z
" clip-path="url(#p645eddb106)" style="fill: #1f77b4; opacity: 0.8; stroke: #000000; stroke-linejoin: miter"/>
   </g>
   <g id="matplotlib.axis_1">
    <g id="xtick_1">
     <g id="line2d_1">
      <defs>
       <path id="mf267cb6976" d="M 0 0 
L 0 3.5 
" style="stroke: #000000; stroke-width: 0.8"/>
      </defs>
      <g>
       <use xlink:href="#mf267cb6976" x="110.443622" y="404.12" style="stroke: #000000; stroke-width: 0.8"/>
      </g>
     </g>
     <g id="text_1">
      <!-- #1 -->
      <g transform="translate(105.443622 418.06375) scale(0.1 -0.1)">
       <defs>
        <path id="TimesNewRomanPSMT-23" d="M 359 -88 
L 650 1334 
L 116 1334 
L 116 1591 
L 700 1591 
L 916 2663 
L 116 2663 
L 116 2913 
L 975 2913 
L 1259 4334 
L 1519 4334 
L 1234 2913 
L 2288 2913 
L 2591 4334 
L 2850 4334 
L 2553 2913 
L 3084 2913 
L 3084 2663 
L 2506 2663 
L 2288 1591 
L 3084 1591 
L 3084 1334 
L 2234 1334 
L 1944 -88 
L 1691 -88 
L 1975 1334 
L 916 1334 
L 619 -88 
L 359 -88 
z
M 963 1591 
L 2022 1591 
L 2247 2663 
L 1181 2663 
L 963 1591 
z
" transform="scale(0.015625)"/>
        <path id="TimesNewRomanPSMT-31" d="M 750 3822 
L 1781 4325 
L 1884 4325 
L 1884 747 
Q 1884 391 1914 303 
Q 1944 216 2037 169 
Q 2131 122 2419 116 
L 2419 0 
L 825 0 
L 825 116 
Q 1125 122 1212 167 
Q 1300 213 1334 289 
Q 1369 366 1369 747 
L 1369 3034 
Q 1369 3497 1338 3628 
Q 1316 3728 1258 3775 
Q 1200 3822 1119 3822 
Q 1003 3822 797 3725 
L 750 3822 
z
" transform="scale(0.015625)"/>
       </defs>
       <use xlink:href="#TimesNewRomanPSMT-23"/>
       <use xlink:href="#TimesNewRomanPSMT-31" transform="translate(50 0)"/>
      </g>
     </g>
    </g>
    <g id="xtick_2">
     <g id="line2d_2">
      <g>
       <use xlink:href="#mf267cb6976" x="187.305801" y="404.12" style="stroke: #000000; stroke-width: 0.8"/>
      </g>
     </g>
     <g id="text_2">
      <!-- #2 -->
      <g transform="translate(182.305801 418.06375) scale(0.1 -0.1)">
       <defs>
        <path id="TimesNewRomanPSMT-32" d="M 2934 816 
L 2638 0 
L 138 0 
L 138 116 
Q 1241 1122 1691 1759 
Q 2141 2397 2141 2925 
Q 2141 3328 1894 3587 
Q 1647 3847 1303 3847 
Q 991 3847 742 3664 
Q 494 3481 375 3128 
L 259 3128 
Q 338 3706 661 4015 
Q 984 4325 1469 4325 
Q 1984 4325 2329 3994 
Q 2675 3663 2675 3213 
Q 2675 2891 2525 2569 
Q 2294 2063 1775 1497 
Q 997 647 803 472 
L 1909 472 
Q 2247 472 2383 497 
Q 2519 522 2628 598 
Q 2738 675 2819 816 
L 2934 816 
z
" transform="scale(0.015625)"/>
       </defs>
       <use xlink:href="#TimesNewRomanPSMT-23"/>
       <use xlink:href="#TimesNewRomanPSMT-32" transform="translate(50 0)"/>
      </g>
     </g>
    </g>
    <g id="xtick_3">
     <g id="line2d_3">
      <g>
       <use xlink:href="#mf267cb6976" x="264.167981" y="404.12" style="stroke: #000000; stroke-width: 0.8"/>
      </g>
     </g>
     <g id="text_3">
      <!-- #3 -->
      <g transform="translate(259.167981 418.06375) scale(0.1 -0.1)">
       <defs>
        <path id="TimesNewRomanPSMT-33" d="M 325 3431 
Q 506 3859 782 4092 
Q 1059 4325 1472 4325 
Q 1981 4325 2253 3994 
Q 2459 3747 2459 3466 
Q 2459 3003 1878 2509 
Q 2269 2356 2469 2072 
Q 2669 1788 2669 1403 
Q 2669 853 2319 450 
Q 1863 -75 997 -75 
Q 569 -75 414 31 
Q 259 138 259 259 
Q 259 350 332 419 
Q 406 488 509 488 
Q 588 488 669 463 
Q 722 447 909 348 
Q 1097 250 1169 231 
Q 1284 197 1416 197 
Q 1734 197 1970 444 
Q 2206 691 2206 1028 
Q 2206 1275 2097 1509 
Q 2016 1684 1919 1775 
Q 1784 1900 1550 2001 
Q 1316 2103 1072 2103 
L 972 2103 
L 972 2197 
Q 1219 2228 1467 2375 
Q 1716 2522 1828 2728 
Q 1941 2934 1941 3181 
Q 1941 3503 1739 3701 
Q 1538 3900 1238 3900 
Q 753 3900 428 3381 
L 325 3431 
z
" transform="scale(0.015625)"/>
       </defs>
       <use xlink:href="#TimesNewRomanPSMT-23"/>
       <use xlink:href="#TimesNewRomanPSMT-33" transform="translate(50 0)"/>
      </g>
     </g>
    </g>
    <g id="xtick_4">
     <g id="line2d_4">
      <g>
       <use xlink:href="#mf267cb6976" x="341.03016" y="404.12" style="stroke: #000000; stroke-width: 0.8"/>
      </g>
     </g>
     <g id="text_4">
      <!-- #4 -->
      <g transform="translate(336.03016 418.06375) scale(0.1 -0.1)">
       <defs>
        <path id="TimesNewRomanPSMT-34" d="M 2978 1563 
L 2978 1119 
L 2409 1119 
L 2409 0 
L 1894 0 
L 1894 1119 
L 100 1119 
L 100 1519 
L 2066 4325 
L 2409 4325 
L 2409 1563 
L 2978 1563 
z
M 1894 1563 
L 1894 3666 
L 406 1563 
L 1894 1563 
z
" transform="scale(0.015625)"/>
       </defs>
       <use xlink:href="#TimesNewRomanPSMT-23"/>
       <use xlink:href="#TimesNewRomanPSMT-34" transform="translate(50 0)"/>
      </g>
     </g>
    </g>
    <g id="xtick_5">
     <g id="line2d_5">
      <g>
       <use xlink:href="#mf267cb6976" x="417.89234" y="404.12" style="stroke: #000000; stroke-width: 0.8"/>
      </g>
     </g>
     <g id="text_5">
      <!-- #5 -->
      <g transform="translate(412.89234 418.06375) scale(0.1 -0.1)">
       <defs>
        <path id="TimesNewRomanPSMT-35" d="M 2778 4238 
L 2534 3706 
L 1259 3706 
L 981 3138 
Q 1809 3016 2294 2522 
Q 2709 2097 2709 1522 
Q 2709 1188 2573 903 
Q 2438 619 2231 419 
Q 2025 219 1772 97 
Q 1413 -75 1034 -75 
Q 653 -75 479 54 
Q 306 184 306 341 
Q 306 428 378 495 
Q 450 563 559 563 
Q 641 563 702 538 
Q 763 513 909 409 
Q 1144 247 1384 247 
Q 1750 247 2026 523 
Q 2303 800 2303 1197 
Q 2303 1581 2056 1914 
Q 1809 2247 1375 2428 
Q 1034 2569 447 2591 
L 1259 4238 
L 2778 4238 
z
" transform="scale(0.015625)"/>
       </defs>
       <use xlink:href="#TimesNewRomanPSMT-23"/>
       <use xlink:href="#TimesNewRomanPSMT-35" transform="translate(50 0)"/>
      </g>
     </g>
    </g>
    <g id="xtick_6">
     <g id="line2d_6">
      <g>
       <use xlink:href="#mf267cb6976" x="494.754519" y="404.12" style="stroke: #000000; stroke-width: 0.8"/>
      </g>
     </g>
     <g id="text_6">
      <!-- #6 -->
      <g transform="translate(489.754519 418.06375) scale(0.1 -0.1)">
       <defs>
        <path id="TimesNewRomanPSMT-36" d="M 2869 4325 
L 2869 4209 
Q 2456 4169 2195 4045 
Q 1934 3922 1679 3669 
Q 1425 3416 1258 3105 
Q 1091 2794 978 2366 
Q 1428 2675 1881 2675 
Q 2316 2675 2634 2325 
Q 2953 1975 2953 1425 
Q 2953 894 2631 456 
Q 2244 -75 1606 -75 
Q 1172 -75 869 213 
Q 275 772 275 1663 
Q 275 2231 503 2743 
Q 731 3256 1154 3653 
Q 1578 4050 1965 4187 
Q 2353 4325 2688 4325 
L 2869 4325 
z
M 925 2138 
Q 869 1716 869 1456 
Q 869 1156 980 804 
Q 1091 453 1309 247 
Q 1469 100 1697 100 
Q 1969 100 2183 356 
Q 2397 613 2397 1088 
Q 2397 1622 2184 2012 
Q 1972 2403 1581 2403 
Q 1463 2403 1327 2353 
Q 1191 2303 925 2138 
z
" transform="scale(0.015625)"/>
       </defs>
       <use xlink:href="#TimesNewRomanPSMT-23"/>
       <use xlink:href="#TimesNewRomanPSMT-36" transform="translate(50 0)"/>
      </g>
     </g>
    </g>
    <g id="xtick_7">
     <g id="line2d_7">
      <g>
       <use xlink:href="#mf267cb6976" x="571.616699" y="404.12" style="stroke: #000000; stroke-width: 0.8"/>
      </g>
     </g>
     <g id="text_7">
      <!-- #7 -->
      <g transform="translate(566.616699 418.06375) scale(0.1 -0.1)">
       <defs>
        <path id="TimesNewRomanPSMT-37" d="M 644 4238 
L 2916 4238 
L 2916 4119 
L 1503 -88 
L 1153 -88 
L 2419 3728 
L 1253 3728 
Q 900 3728 750 3644 
Q 488 3500 328 3200 
L 238 3234 
L 644 4238 
z
" transform="scale(0.015625)"/>
       </defs>
       <use xlink:href="#TimesNewRomanPSMT-23"/>
       <use xlink:href="#TimesNewRomanPSMT-37" transform="translate(50 0)"/>
      </g>
     </g>
    </g>
    <g id="xtick_8">
     <g id="line2d_8">
      <g>
       <use xlink:href="#mf267cb6976" x="648.478878" y="404.12" style="stroke: #000000; stroke-width: 0.8"/>
      </g>
     </g>
     <g id="text_8">
      <!-- #8 -->
      <g transform="translate(643.478878 418.06375) scale(0.1 -0.1)">
       <defs>
        <path id="TimesNewRomanPSMT-38" d="M 1228 2134 
Q 725 2547 579 2797 
Q 434 3047 434 3316 
Q 434 3728 753 4026 
Q 1072 4325 1600 4325 
Q 2113 4325 2425 4047 
Q 2738 3769 2738 3413 
Q 2738 3175 2569 2928 
Q 2400 2681 1866 2347 
Q 2416 1922 2594 1678 
Q 2831 1359 2831 1006 
Q 2831 559 2490 242 
Q 2150 -75 1597 -75 
Q 994 -75 656 303 
Q 388 606 388 966 
Q 388 1247 577 1523 
Q 766 1800 1228 2134 
z
M 1719 2469 
Q 2094 2806 2194 3001 
Q 2294 3197 2294 3444 
Q 2294 3772 2109 3958 
Q 1925 4144 1606 4144 
Q 1288 4144 1088 3959 
Q 888 3775 888 3528 
Q 888 3366 970 3203 
Q 1053 3041 1206 2894 
L 1719 2469 
z
M 1375 2016 
Q 1116 1797 991 1539 
Q 866 1281 866 981 
Q 866 578 1086 336 
Q 1306 94 1647 94 
Q 1984 94 2187 284 
Q 2391 475 2391 747 
Q 2391 972 2272 1150 
Q 2050 1481 1375 2016 
z
" transform="scale(0.015625)"/>
       </defs>
       <use xlink:href="#TimesNewRomanPSMT-23"/>
       <use xlink:href="#TimesNewRomanPSMT-38" transform="translate(50 0)"/>
      </g>
     </g>
    </g>
   </g>
   <g id="matplotlib.axis_2">
    <g id="ytick_1">
     <g id="line2d_9">
      <defs>
       <path id="mc34887294d" d="M 0 0 
L -3.5 0 
" style="stroke: #000000; stroke-width: 0.8"/>
      </defs>
      <g>
       <use xlink:href="#mc34887294d" x="49.7225" y="404.12" style="stroke: #000000; stroke-width: 0.8"/>
      </g>
     </g>
     <g id="text_9">
      <!-- 0 -->
      <g transform="translate(37.7225 407.591875) scale(0.1 -0.1)">
       <defs>
        <path id="TimesNewRomanPSMT-30" d="M 231 2094 
Q 231 2819 450 3342 
Q 669 3866 1031 4122 
Q 1313 4325 1613 4325 
Q 2100 4325 2488 3828 
Q 2972 3213 2972 2159 
Q 2972 1422 2759 906 
Q 2547 391 2217 158 
Q 1888 -75 1581 -75 
Q 975 -75 572 641 
Q 231 1244 231 2094 
z
M 844 2016 
Q 844 1141 1059 588 
Q 1238 122 1591 122 
Q 1759 122 1940 273 
Q 2122 425 2216 781 
Q 2359 1319 2359 2297 
Q 2359 3022 2209 3506 
Q 2097 3866 1919 4016 
Q 1791 4119 1609 4119 
Q 1397 4119 1231 3928 
Q 1006 3669 925 3112 
Q 844 2556 844 2016 
z
" transform="scale(0.015625)"/>
       </defs>
       <use xlink:href="#TimesNewRomanPSMT-30"/>
      </g>
     </g>
    </g>
    <g id="ytick_2">
     <g id="line2d_10">
      <g>
       <use xlink:href="#mc34887294d" x="49.7225" y="357.096161" style="stroke: #000000; stroke-width: 0.8"/>
      </g>
     </g>
     <g id="text_10">
      <!-- 20 -->
      <g transform="translate(32.7225 360.568036) scale(0.1 -0.1)">
       <use xlink:href="#TimesNewRomanPSMT-32"/>
       <use xlink:href="#TimesNewRomanPSMT-30" transform="translate(50 0)"/>
      </g>
     </g>
    </g>
    <g id="ytick_3">
     <g id="line2d_11">
      <g>
       <use xlink:href="#mc34887294d" x="49.7225" y="310.072322" style="stroke: #000000; stroke-width: 0.8"/>
      </g>
     </g>
     <g id="text_11">
      <!-- 40 -->
      <g transform="translate(32.7225 313.544197) scale(0.1 -0.1)">
       <use xlink:href="#TimesNewRomanPSMT-34"/>
       <use xlink:href="#TimesNewRomanPSMT-30" transform="translate(50 0)"/>
      </g>
     </g>
    </g>
    <g id="ytick_4">
     <g id="line2d_12">
      <g>
       <use xlink:href="#mc34887294d" x="49.7225" y="263.048483" style="stroke: #000000; stroke-width: 0.8"/>
      </g>
     </g>
     <g id="text_12">
      <!-- 60 -->
      <g transform="translate(32.7225 266.520358) scale(0.1 -0.1)">
       <use xlink:href="#TimesNewRomanPSMT-36"/>
       <use xlink:href="#TimesNewRomanPSMT-30" transform="translate(50 0)"/>
      </g>
     </g>
    </g>
    <g id="ytick_5">
     <g id="line2d_13">
      <g>
       <use xlink:href="#mc34887294d" x="49.7225" y="216.024644" style="stroke: #000000; stroke-width: 0.8"/>
      </g>
     </g>
     <g id="text_13">
      <!-- 80 -->
      <g transform="translate(32.7225 219.496519) scale(0.1 -0.1)">
       <use xlink:href="#TimesNewRomanPSMT-38"/>
       <use xlink:href="#TimesNewRomanPSMT-30" transform="translate(50 0)"/>
      </g>
     </g>
    </g>
    <g id="ytick_6">
     <g id="line2d_14">
      <g>
       <use xlink:href="#mc34887294d" x="49.7225" y="169.000805" style="stroke: #000000; stroke-width: 0.8"/>
      </g>
     </g>
     <g id="text_14">
      <!-- 100 -->
      <g transform="translate(27.7225 172.47268) scale(0.1 -0.1)">
       <use xlink:href="#TimesNewRomanPSMT-31"/>
       <use xlink:href="#TimesNewRomanPSMT-30" transform="translate(50 0)"/>
       <use xlink:href="#TimesNewRomanPSMT-30" transform="translate(100 0)"/>
      </g>
     </g>
    </g>
    <g id="ytick_7">
     <g id="line2d_15">
      <g>
       <use xlink:href="#mc34887294d" x="49.7225" y="121.976966" style="stroke: #000000; stroke-width: 0.8"/>
      </g>
     </g>
     <g id="text_15">
      <!-- 120 -->
      <g transform="translate(27.7225 125.448841) scale(0.1 -0.1)">
       <use xlink:href="#TimesNewRomanPSMT-31"/>
       <use xlink:href="#TimesNewRomanPSMT-32" transform="translate(50 0)"/>
       <use xlink:href="#TimesNewRomanPSMT-30" transform="translate(100 0)"/>
      </g>
     </g>
    </g>
    <g id="ytick_8">
     <g id="line2d_16">
      <g>
       <use xlink:href="#mc34887294d" x="49.7225" y="74.953127" style="stroke: #000000; stroke-width: 0.8"/>
      </g>
     </g>
     <g id="text_16">
      <!-- 140 -->
      <g transform="translate(27.7225 78.425002) scale(0.1 -0.1)">
       <use xlink:href="#TimesNewRomanPSMT-31"/>
       <use xlink:href="#TimesNewRomanPSMT-34" transform="translate(50 0)"/>
       <use xlink:href="#TimesNewRomanPSMT-30" transform="translate(100 0)"/>
      </g>
     </g>
    </g>
    <g id="ytick_9">
     <g id="line2d_17">
      <g>
       <use xlink:href="#mc34887294d" x="49.7225" y="27.929288" style="stroke: #000000; stroke-width: 0.8"/>
      </g>
     </g>
     <g id="text_17">
      <!-- 160 -->
      <g transform="translate(27.7225 31.401163) scale(0.1 -0.1)">
       <use xlink:href="#TimesNewRomanPSMT-31"/>
       <use xlink:href="#TimesNewRomanPSMT-36" transform="translate(50 0)"/>
       <use xlink:href="#TimesNewRomanPSMT-30" transform="translate(100 0)"/>
      </g>
     </g>
    </g>
    <g id="text_18">
     <!-- 抗折强度 (MPa) -->
     <g transform="translate(21.155625 256.398438) rotate(-90) scale(0.12 -0.12)">
      <defs>
       <path id="SimSun-6297" d="M 3625 5150 
Q 4100 4825 4250 4662 
Q 4400 4500 4400 4350 
Q 4400 4300 4362 4187 
Q 4325 4075 4250 4025 
Q 4175 3975 4125 3975 
Q 4025 3975 3975 4250 
Q 3900 4575 3550 5100 
L 3625 5150 
z
M 5200 3850 
L 5525 4175 
L 6000 3700 
L 3400 3700 
Q 3025 3700 2800 3625 
L 2575 3850 
L 5200 3850 
z
M 3075 3150 
L 3475 2900 
L 4450 2900 
L 4650 3150 
L 5075 2825 
L 4850 2650 
L 4850 225 
Q 4800 -100 5150 -75 
L 5450 -75 
Q 5675 -25 5700 275 
Q 5725 575 5750 1075 
L 5850 1075 
Q 5875 700 5900 375 
Q 5925 50 6150 -25 
Q 5975 -400 5550 -375 
L 5025 -375 
Q 4450 -400 4500 150 
L 4500 2750 
L 3475 2750 
Q 3500 1350 3275 662 
Q 3050 -25 1875 -625 
L 1825 -550 
Q 2800 100 2950 675 
Q 3100 1250 3100 2125 
Q 3100 2750 3075 3150 
z
M 250 1925 
Q 350 1900 1350 2275 
L 1350 3550 
L 775 3550 
L 475 3500 
L 275 3700 
L 1350 3700 
Q 1350 4525 1325 5150 
L 1925 4875 
L 1700 4700 
L 1700 3700 
L 2000 3700 
L 2275 3975 
L 2700 3550 
L 1700 3550 
L 1700 2400 
L 2600 2750 
L 2650 2650 
L 1700 2150 
L 1700 25 
Q 1675 -450 1125 -650 
Q 1150 -350 400 -75 
L 400 25 
Q 975 -75 1162 -62 
Q 1350 -50 1350 225 
L 1350 2000 
Q 975 1800 812 1687 
Q 650 1575 575 1450 
L 250 1925 
z
" transform="scale(0.015625)"/>
       <path id="SimSun-6298" d="M 4625 -625 
Q 4650 125 4650 500 
L 4650 2825 
L 3450 2825 
Q 3400 525 2000 -600 
L 1950 -525 
Q 2475 50 2775 925 
Q 3075 1800 3087 2950 
Q 3100 4100 3075 4750 
L 3450 4500 
Q 5075 4800 5425 5125 
L 5850 4650 
Q 5425 4625 4850 4550 
Q 4275 4475 3450 4375 
L 3450 2975 
L 5300 2975 
L 5625 3300 
L 6100 2825 
L 5000 2825 
L 5000 300 
Q 5000 -75 5025 -475 
L 4625 -625 
z
M 300 1975 
Q 500 1975 1550 2375 
L 1550 3625 
L 825 3625 
L 525 3575 
L 325 3775 
L 1550 3775 
Q 1550 4600 1525 5225 
L 2125 4950 
L 1900 4775 
L 1900 3775 
L 2225 3775 
L 2500 4050 
L 2925 3625 
L 1900 3625 
L 1900 2500 
L 2825 2850 
L 2850 2750 
L 1900 2250 
L 1900 225 
Q 1925 -375 1350 -575 
Q 1350 -250 600 25 
L 600 125 
Q 1150 25 1350 25 
Q 1550 25 1550 300 
L 1550 2075 
Q 675 1650 600 1500 
L 300 1975 
z
" transform="scale(0.015625)"/>
       <path id="SimSun-5f3a" d="M 3400 4675 
L 3400 3750 
L 5075 3750 
L 5075 4675 
L 3400 4675 
z
M 3150 2450 
L 3150 1450 
L 4075 1450 
L 4075 2450 
L 3150 2450 
z
M 4400 2450 
L 4400 1450 
L 5350 1450 
L 5350 2450 
L 4400 2450 
z
M 3050 5025 
L 3400 4825 
L 5025 4825 
L 5200 5075 
L 5600 4750 
L 5400 4600 
Q 5400 3700 5425 3450 
L 5075 3325 
L 5075 3600 
L 4075 3600 
L 4600 3350 
L 4400 3175 
L 4400 2600 
L 5300 2600 
L 5475 2825 
L 5850 2525 
L 5675 2375 
Q 5675 1600 5700 1225 
L 5350 1075 
L 5350 1300 
L 4400 1300 
L 4400 125 
Q 5050 175 5525 225 
Q 5325 575 5050 900 
L 5100 950 
Q 5500 700 5762 437 
Q 6025 175 6050 0 
Q 6075 -175 6000 -300 
Q 5925 -425 5850 -462 
Q 5775 -500 5750 -325 
Q 5700 -150 5600 50 
Q 4000 -150 3375 -262 
Q 2750 -375 2550 -525 
L 2300 -50 
Q 3125 25 4075 100 
L 4075 1300 
L 3150 1300 
L 3150 1100 
L 2800 900 
Q 2825 1375 2825 1962 
Q 2825 2550 2800 2800 
L 3200 2600 
L 4075 2600 
L 4075 3600 
L 3400 3600 
L 3400 3375 
L 3050 3250 
Q 3075 3575 3075 4062 
Q 3075 4550 3050 5025 
z
M 400 4700 
L 1900 4700 
L 2075 4950 
L 2475 4650 
L 2275 4500 
Q 2275 3525 2300 3025 
L 1950 2875 
L 1950 3150 
L 1100 3150 
L 975 2025 
L 1850 2025 
L 2025 2275 
L 2425 1975 
L 2250 1800 
Q 2125 600 1950 100 
Q 1775 -400 1200 -550 
Q 1250 -250 700 50 
L 725 150 
Q 1025 50 1225 0 
Q 1425 -50 1537 87 
Q 1650 225 1725 587 
Q 1800 950 1900 1875 
L 975 1875 
L 800 1675 
L 500 1950 
Q 650 2050 700 2487 
Q 750 2925 775 3525 
L 1125 3300 
L 1950 3300 
L 1950 4550 
L 875 4550 
L 600 4500 
L 400 4700 
z
" transform="scale(0.015625)"/>
       <path id="SimSun-5ea6" d="M 2550 2025 
Q 2575 2525 2575 3175 
L 1925 3175 
L 1625 3125 
L 1425 3325 
L 2575 3325 
Q 2575 3700 2550 4150 
L 3100 3875 
L 2900 3750 
L 2900 3325 
L 4300 3325 
Q 4300 3750 4275 4125 
L 4850 3875 
L 4625 3725 
L 4625 3325 
L 5100 3325 
L 5425 3650 
L 5900 3175 
L 4625 3175 
Q 4625 2450 4650 2225 
L 4300 2075 
L 4300 2300 
L 2900 2300 
L 2900 2175 
L 2550 2025 
z
M 4875 1500 
Q 4300 775 3900 425 
Q 4700 -75 6025 -125 
L 6025 -225 
Q 5625 -300 5550 -550 
Q 4375 -325 3675 225 
Q 2475 -450 1075 -625 
L 1050 -525 
Q 2375 -275 3450 450 
Q 2975 925 2575 1625 
L 2325 1625 
L 2100 1575 
L 1900 1775 
L 4525 1775 
L 4750 2000 
L 5125 1625 
L 4875 1500 
z
M 2700 1625 
Q 3175 975 3650 625 
Q 4150 1100 4500 1625 
L 2700 1625 
z
M 2900 3175 
L 2900 2450 
L 4300 2450 
L 4300 3175 
L 2900 3175 
z
M 975 4650 
L 1400 4400 
L 3375 4400 
Q 3350 4550 3262 4725 
Q 3175 4900 2900 5225 
L 2975 5275 
Q 3550 5025 3637 4887 
Q 3725 4750 3725 4725 
Q 3725 4575 3525 4400 
L 5150 4400 
L 5500 4750 
L 6000 4250 
L 1375 4250 
Q 1400 2750 1287 1912 
Q 1175 1075 925 475 
Q 675 -125 300 -625 
L 225 -575 
Q 725 300 862 1250 
Q 1000 2200 1012 3187 
Q 1025 4175 975 4650 
z
" transform="scale(0.015625)"/>
       <path id="TimesNewRomanPSMT-20" transform="scale(0.015625)"/>
       <path id="TimesNewRomanPSMT-28" d="M 1988 -1253 
L 1988 -1369 
Q 1516 -1131 1200 -813 
Q 750 -359 506 256 
Q 263 872 263 1534 
Q 263 2503 741 3301 
Q 1219 4100 1988 4444 
L 1988 4313 
Q 1603 4100 1356 3731 
Q 1109 3363 987 2797 
Q 866 2231 866 1616 
Q 866 947 969 400 
Q 1050 -31 1165 -292 
Q 1281 -553 1476 -793 
Q 1672 -1034 1988 -1253 
z
" transform="scale(0.015625)"/>
       <path id="TimesNewRomanPSMT-4d" d="M 2619 0 
L 981 3566 
L 981 734 
Q 981 344 1066 247 
Q 1181 116 1431 116 
L 1581 116 
L 1581 0 
L 106 0 
L 106 116 
L 256 116 
Q 525 116 638 278 
Q 706 378 706 734 
L 706 3503 
Q 706 3784 644 3909 
Q 600 4000 483 4061 
Q 366 4122 106 4122 
L 106 4238 
L 1306 4238 
L 2844 922 
L 4356 4238 
L 5556 4238 
L 5556 4122 
L 5409 4122 
Q 5138 4122 5025 3959 
Q 4956 3859 4956 3503 
L 4956 734 
Q 4956 344 5044 247 
Q 5159 116 5409 116 
L 5556 116 
L 5556 0 
L 3756 0 
L 3756 116 
L 3906 116 
Q 4178 116 4288 278 
Q 4356 378 4356 734 
L 4356 3566 
L 2722 0 
L 2619 0 
z
" transform="scale(0.015625)"/>
       <path id="TimesNewRomanPSMT-50" d="M 1313 1984 
L 1313 750 
Q 1313 350 1400 253 
Q 1519 116 1759 116 
L 1922 116 
L 1922 0 
L 106 0 
L 106 116 
L 266 116 
Q 534 116 650 291 
Q 713 388 713 750 
L 713 3488 
Q 713 3888 628 3984 
Q 506 4122 266 4122 
L 106 4122 
L 106 4238 
L 1659 4238 
Q 2228 4238 2556 4120 
Q 2884 4003 3109 3725 
Q 3334 3447 3334 3066 
Q 3334 2547 2992 2222 
Q 2650 1897 2025 1897 
Q 1872 1897 1694 1919 
Q 1516 1941 1313 1984 
z
M 1313 2163 
Q 1478 2131 1606 2115 
Q 1734 2100 1825 2100 
Q 2150 2100 2386 2351 
Q 2622 2603 2622 3003 
Q 2622 3278 2509 3514 
Q 2397 3750 2190 3867 
Q 1984 3984 1722 3984 
Q 1563 3984 1313 3925 
L 1313 2163 
z
" transform="scale(0.015625)"/>
       <path id="TimesNewRomanPSMT-61" d="M 1822 413 
Q 1381 72 1269 19 
Q 1100 -59 909 -59 
Q 613 -59 420 144 
Q 228 347 228 678 
Q 228 888 322 1041 
Q 450 1253 767 1440 
Q 1084 1628 1822 1897 
L 1822 2009 
Q 1822 2438 1686 2597 
Q 1550 2756 1291 2756 
Q 1094 2756 978 2650 
Q 859 2544 859 2406 
L 866 2225 
Q 866 2081 792 2003 
Q 719 1925 600 1925 
Q 484 1925 411 2006 
Q 338 2088 338 2228 
Q 338 2497 613 2722 
Q 888 2947 1384 2947 
Q 1766 2947 2009 2819 
Q 2194 2722 2281 2516 
Q 2338 2381 2338 1966 
L 2338 994 
Q 2338 584 2353 492 
Q 2369 400 2405 369 
Q 2441 338 2488 338 
Q 2538 338 2575 359 
Q 2641 400 2828 588 
L 2828 413 
Q 2478 -56 2159 -56 
Q 2006 -56 1915 50 
Q 1825 156 1822 413 
z
M 1822 616 
L 1822 1706 
Q 1350 1519 1213 1441 
Q 966 1303 859 1153 
Q 753 1003 753 825 
Q 753 600 887 451 
Q 1022 303 1197 303 
Q 1434 303 1822 616 
z
" transform="scale(0.015625)"/>
       <path id="TimesNewRomanPSMT-29" d="M 144 4313 
L 144 4444 
Q 619 4209 934 3891 
Q 1381 3434 1625 2820 
Q 1869 2206 1869 1541 
Q 1869 572 1392 -226 
Q 916 -1025 144 -1369 
L 144 -1253 
Q 528 -1038 776 -670 
Q 1025 -303 1145 264 
Q 1266 831 1266 1447 
Q 1266 2113 1163 2663 
Q 1084 3094 967 3353 
Q 850 3613 656 3853 
Q 463 4094 144 4313 
z
" transform="scale(0.015625)"/>
      </defs>
      <use xlink:href="#SimSun-6297"/>
      <use xlink:href="#SimSun-6298" transform="translate(100 0)"/>
      <use xlink:href="#SimSun-5f3a" transform="translate(200 0)"/>
      <use xlink:href="#SimSun-5ea6" transform="translate(300 0)"/>
      <use xlink:href="#TimesNewRomanPSMT-20" transform="translate(400 0)"/>
      <use xlink:href="#TimesNewRomanPSMT-28" transform="translate(425 0)"/>
      <use xlink:href="#TimesNewRomanPSMT-4d" transform="translate(458.300781 0)"/>
      <use xlink:href="#TimesNewRomanPSMT-50" transform="translate(547.216797 0)"/>
      <use xlink:href="#TimesNewRomanPSMT-61" transform="translate(602.832031 0)"/>
      <use xlink:href="#TimesNewRomanPSMT-29" transform="translate(647.216797 0)"/>
     </g>
    </g>
   </g>
   <g id="LineCollection_1">
    <path d="M 110.443622 172.959851 
L 110.443622 81.092451 
" clip-path="url(#p645eddb106)" style="fill: none; stroke: #ff0000; stroke-width: 2"/>
    <path d="M 187.305801 179.091738 
L 187.305801 113.402552 
" clip-path="url(#p645eddb106)" style="fill: none; stroke: #ff0000; stroke-width: 2"/>
    <path d="M 264.167981 146.095406 
L 264.167981 44.972381 
" clip-path="url(#p645eddb106)" style="fill: none; stroke: #ff0000; stroke-width: 2"/>
    <path d="M 341.03016 152.841412 
L 341.03016 100.724193 
" clip-path="url(#p645eddb106)" style="fill: none; stroke: #ff0000; stroke-width: 2"/>
    <path d="M 417.89234 206.547168 
L 417.89234 92.299258 
" clip-path="url(#p645eddb106)" style="fill: none; stroke: #ff0000; stroke-width: 2"/>
    <path d="M 494.754519 202.575618 
L 494.754519 149.897579 
" clip-path="url(#p645eddb106)" style="fill: none; stroke: #ff0000; stroke-width: 2"/>
    <path d="M 571.616699 219.057766 
L 571.616699 94.507121 
" clip-path="url(#p645eddb106)" style="fill: none; stroke: #ff0000; stroke-width: 2"/>
    <path d="M 648.478878 219.852403 
L 648.478878 188.167703 
" clip-path="url(#p645eddb106)" style="fill: none; stroke: #ff0000; stroke-width: 2"/>
   </g>
   <g id="line2d_18">
    <defs>
     <path id="mdabe7d8607" d="M 5 0 
L -5 -0 
" style="stroke: #ff0000"/>
    </defs>
    <g clip-path="url(#p645eddb106)">
     <use xlink:href="#mdabe7d8607" x="110.443622" y="172.959851" style="fill: #1f77b4; stroke: #ff0000"/>
     <use xlink:href="#mdabe7d8607" x="187.305801" y="179.091738" style="fill: #1f77b4; stroke: #ff0000"/>
     <use xlink:href="#mdabe7d8607" x="264.167981" y="146.095406" style="fill: #1f77b4; stroke: #ff0000"/>
     <use xlink:href="#mdabe7d8607" x="341.03016" y="152.841412" style="fill: #1f77b4; stroke: #ff0000"/>
     <use xlink:href="#mdabe7d8607" x="417.89234" y="206.547168" style="fill: #1f77b4; stroke: #ff0000"/>
     <use xlink:href="#mdabe7d8607" x="494.754519" y="202.575618" style="fill: #1f77b4; stroke: #ff0000"/>
     <use xlink:href="#mdabe7d8607" x="571.616699" y="219.057766" style="fill: #1f77b4; stroke: #ff0000"/>
     <use xlink:href="#mdabe7d8607" x="648.478878" y="219.852403" style="fill: #1f77b4; stroke: #ff0000"/>
    </g>
   </g>
   <g id="line2d_19">
    <g clip-path="url(#p645eddb106)">
     <use xlink:href="#mdabe7d8607" x="110.443622" y="81.092451" style="fill: #1f77b4; stroke: #ff0000"/>
     <use xlink:href="#mdabe7d8607" x="187.305801" y="113.402552" style="fill: #1f77b4; stroke: #ff0000"/>
     <use xlink:href="#mdabe7d8607" x="264.167981" y="44.972381" style="fill: #1f77b4; stroke: #ff0000"/>
     <use xlink:href="#mdabe7d8607" x="341.03016" y="100.724193" style="fill: #1f77b4; stroke: #ff0000"/>
     <use xlink:href="#mdabe7d8607" x="417.89234" y="92.299258" style="fill: #1f77b4; stroke: #ff0000"/>
     <use xlink:href="#mdabe7d8607" x="494.754519" y="149.897579" style="fill: #1f77b4; stroke: #ff0000"/>
     <use xlink:href="#mdabe7d8607" x="571.616699" y="94.507121" style="fill: #1f77b4; stroke: #ff0000"/>
     <use xlink:href="#mdabe7d8607" x="648.478878" y="188.167703" style="fill: #1f77b4; stroke: #ff0000"/>
    </g>
   </g>
   <g id="patch_11">
    <path d="M 49.7225 404.12 
L 49.7225 27.015 
" style="fill: none; stroke: #000000; stroke-width: 0.8; stroke-linejoin: miter; stroke-linecap: square"/>
   </g>
   <g id="patch_12">
    <path d="M 709.2 404.12 
L 709.2 27.015 
" style="fill: none; stroke: #000000; stroke-width: 0.8; stroke-linejoin: miter; stroke-linecap: square"/>
   </g>
   <g id="patch_13">
    <path d="M 49.7225 404.12 
L 709.2 404.12 
" style="fill: none; stroke: #000000; stroke-width: 0.8; stroke-linejoin: miter; stroke-linecap: square"/>
   </g>
   <g id="patch_14">
    <path d="M 49.7225 27.015 
L 709.2 27.015 
" style="fill: none; stroke: #000000; stroke-width: 0.8; stroke-linejoin: miter; stroke-linecap: square"/>
   </g>
   <g id="text_19">
    <!-- 117.85 -->
    <g transform="translate(90.099872 122.641961) scale(0.15 -0.15)">
     <defs>
      <path id="TimesNewRomanPSMT-2e" d="M 800 606 
Q 947 606 1047 504 
Q 1147 403 1147 259 
Q 1147 116 1045 14 
Q 944 -88 800 -88 
Q 656 -88 554 14 
Q 453 116 453 259 
Q 453 406 554 506 
Q 656 606 800 606 
z
" transform="scale(0.015625)"/>
     </defs>
     <use xlink:href="#TimesNewRomanPSMT-31"/>
     <use xlink:href="#TimesNewRomanPSMT-31" transform="translate(46.25 0)"/>
     <use xlink:href="#TimesNewRomanPSMT-37" transform="translate(96.25 0)"/>
     <use xlink:href="#TimesNewRomanPSMT-2e" transform="translate(146.25 0)"/>
     <use xlink:href="#TimesNewRomanPSMT-38" transform="translate(171.25 0)"/>
     <use xlink:href="#TimesNewRomanPSMT-35" transform="translate(221.25 0)"/>
    </g>
   </g>
   <g id="text_20">
    <!-- 109.68 -->
    <g transform="translate(166.680801 141.862955) scale(0.15 -0.15)">
     <defs>
      <path id="TimesNewRomanPSMT-39" d="M 338 -88 
L 338 28 
Q 744 34 1094 217 
Q 1444 400 1770 856 
Q 2097 1313 2225 1859 
Q 1734 1544 1338 1544 
Q 891 1544 572 1889 
Q 253 2234 253 2806 
Q 253 3363 572 3797 
Q 956 4325 1575 4325 
Q 2097 4325 2469 3894 
Q 2925 3359 2925 2575 
Q 2925 1869 2578 1258 
Q 2231 647 1613 244 
Q 1109 -88 516 -88 
L 338 -88 
z
M 2275 2091 
Q 2331 2497 2331 2741 
Q 2331 3044 2228 3395 
Q 2125 3747 1936 3934 
Q 1747 4122 1506 4122 
Q 1228 4122 1018 3872 
Q 809 3622 809 3128 
Q 809 2469 1088 2097 
Q 1291 1828 1588 1828 
Q 1731 1828 1928 1897 
Q 2125 1966 2275 2091 
z
" transform="scale(0.015625)"/>
     </defs>
     <use xlink:href="#TimesNewRomanPSMT-31"/>
     <use xlink:href="#TimesNewRomanPSMT-30" transform="translate(50 0)"/>
     <use xlink:href="#TimesNewRomanPSMT-39" transform="translate(100 0)"/>
     <use xlink:href="#TimesNewRomanPSMT-2e" transform="translate(150 0)"/>
     <use xlink:href="#TimesNewRomanPSMT-36" transform="translate(175 0)"/>
     <use xlink:href="#TimesNewRomanPSMT-38" transform="translate(225 0)"/>
    </g>
   </g>
   <g id="text_21">
    <!-- 131.25 -->
    <g transform="translate(243.542981 91.149704) scale(0.15 -0.15)">
     <use xlink:href="#TimesNewRomanPSMT-31"/>
     <use xlink:href="#TimesNewRomanPSMT-33" transform="translate(50 0)"/>
     <use xlink:href="#TimesNewRomanPSMT-31" transform="translate(100 0)"/>
     <use xlink:href="#TimesNewRomanPSMT-2e" transform="translate(150 0)"/>
     <use xlink:href="#TimesNewRomanPSMT-32" transform="translate(175 0)"/>
     <use xlink:href="#TimesNewRomanPSMT-35" transform="translate(225 0)"/>
    </g>
   </g>
   <g id="text_22">
    <!-- 117.96 -->
    <g transform="translate(320.68641 122.398613) scale(0.15 -0.15)">
     <use xlink:href="#TimesNewRomanPSMT-31"/>
     <use xlink:href="#TimesNewRomanPSMT-31" transform="translate(46.25 0)"/>
     <use xlink:href="#TimesNewRomanPSMT-37" transform="translate(96.25 0)"/>
     <use xlink:href="#TimesNewRomanPSMT-2e" transform="translate(146.25 0)"/>
     <use xlink:href="#TimesNewRomanPSMT-39" transform="translate(171.25 0)"/>
     <use xlink:href="#TimesNewRomanPSMT-36" transform="translate(221.25 0)"/>
    </g>
   </g>
   <g id="text_23">
    <!-- 108.33 -->
    <g transform="translate(397.26734 145.039023) scale(0.15 -0.15)">
     <use xlink:href="#TimesNewRomanPSMT-31"/>
     <use xlink:href="#TimesNewRomanPSMT-30" transform="translate(50 0)"/>
     <use xlink:href="#TimesNewRomanPSMT-38" transform="translate(100 0)"/>
     <use xlink:href="#TimesNewRomanPSMT-2e" transform="translate(150 0)"/>
     <use xlink:href="#TimesNewRomanPSMT-33" transform="translate(175 0)"/>
     <use xlink:href="#TimesNewRomanPSMT-33" transform="translate(225 0)"/>
    </g>
   </g>
   <g id="text_24">
    <!-- 96.92 -->
    <g transform="translate(477.879519 171.852409) scale(0.15 -0.15)">
     <use xlink:href="#TimesNewRomanPSMT-39"/>
     <use xlink:href="#TimesNewRomanPSMT-36" transform="translate(50 0)"/>
     <use xlink:href="#TimesNewRomanPSMT-2e" transform="translate(100 0)"/>
     <use xlink:href="#TimesNewRomanPSMT-39" transform="translate(125 0)"/>
     <use xlink:href="#TimesNewRomanPSMT-32" transform="translate(175 0)"/>
    </g>
   </g>
   <g id="text_25">
    <!-- 105.20 -->
    <g transform="translate(550.991699 152.398254) scale(0.15 -0.15)">
     <use xlink:href="#TimesNewRomanPSMT-31"/>
     <use xlink:href="#TimesNewRomanPSMT-30" transform="translate(50 0)"/>
     <use xlink:href="#TimesNewRomanPSMT-35" transform="translate(100 0)"/>
     <use xlink:href="#TimesNewRomanPSMT-2e" transform="translate(150 0)"/>
     <use xlink:href="#TimesNewRomanPSMT-32" transform="translate(175 0)"/>
     <use xlink:href="#TimesNewRomanPSMT-30" transform="translate(225 0)"/>
    </g>
   </g>
   <g id="text_26">
    <!-- 85.11 -->
    <g transform="translate(631.885128 199.625864) scale(0.15 -0.15)">
     <use xlink:href="#TimesNewRomanPSMT-38"/>
     <use xlink:href="#TimesNewRomanPSMT-35" transform="translate(50 0)"/>
     <use xlink:href="#TimesNewRomanPSMT-2e" transform="translate(100 0)"/>
     <use xlink:href="#TimesNewRomanPSMT-31" transform="translate(125 0)"/>
     <use xlink:href="#TimesNewRomanPSMT-31" transform="translate(171.25 0)"/>
    </g>
   </g>
   <g id="text_27">
    <!-- 抗折强度平均值及标准差 -->
    <g transform="translate(302.46125 21.015) scale(0.14 -0.14)">
     <defs>
      <path id="SimSun-5e73" d="M 3375 750 
Q 3375 200 3400 -350 
L 2975 -525 
Q 3000 250 3000 875 
L 3000 2325 
L 1050 2325 
Q 725 2325 450 2250 
L 225 2475 
L 3000 2475 
L 3000 4575 
L 1600 4575 
Q 1275 4575 1000 4500 
L 775 4725 
L 4850 4725 
L 5200 5075 
L 5700 4575 
L 3375 4575 
L 3375 2475 
L 5200 2475 
L 5575 2850 
L 6100 2325 
L 3375 2325 
L 3375 750 
z
M 4750 4325 
L 5275 3925 
Q 5075 3925 4725 3475 
Q 4350 3025 3925 2625 
L 3850 2675 
Q 4500 3550 4750 4325 
z
M 1300 4200 
Q 2025 3675 2150 3487 
Q 2275 3300 2275 3150 
Q 2275 3075 2237 2962 
Q 2200 2850 2062 2750 
Q 1925 2650 1800 3100 
Q 1675 3525 1225 4150 
L 1300 4200 
z
" transform="scale(0.015625)"/>
      <path id="SimSun-5747" d="M 4075 4875 
L 3825 4725 
Q 3650 4325 3475 3925 
L 5400 3925 
L 5625 4175 
L 5975 3850 
L 5775 3675 
Q 5725 800 5612 337 
Q 5500 -125 5275 -312 
Q 5050 -500 4725 -625 
Q 4625 -250 3800 -25 
L 3800 100 
Q 4575 -50 4887 -12 
Q 5200 25 5287 750 
Q 5375 1475 5425 3775 
L 3425 3775 
Q 2975 2950 2500 2450 
L 2400 2500 
Q 2875 3200 3150 3950 
Q 3425 4700 3475 5200 
L 4075 4875 
z
M 3500 3175 
Q 4075 2850 4237 2637 
Q 4400 2425 4400 2300 
Q 4400 2175 4287 2025 
Q 4175 1875 4125 1875 
Q 4050 1875 3975 2125 
Q 3875 2500 3425 3100 
L 3500 3175 
z
M 4975 1750 
Q 4525 1425 3850 1000 
Q 3150 550 2900 225 
L 2525 700 
Q 2875 800 3462 1075 
Q 4050 1350 4925 1850 
L 4975 1750 
z
M 1700 1100 
L 2775 1500 
L 2825 1375 
Q 1875 925 1325 637 
Q 775 350 650 175 
L 275 675 
Q 950 850 1350 1000 
L 1350 3150 
L 750 3150 
L 525 3100 
L 325 3300 
L 1350 3300 
Q 1350 4700 1325 5175 
L 1925 4875 
L 1700 4675 
L 1700 3300 
L 1975 3300 
L 2250 3575 
L 2650 3150 
L 1700 3150 
L 1700 1100 
z
" transform="scale(0.015625)"/>
      <path id="SimSun-503c" d="M 1525 650 
Q 1525 -225 1550 -525 
L 1175 -650 
Q 1200 250 1200 550 
L 1200 3025 
Q 750 2300 325 1850 
L 250 1900 
Q 725 2625 1100 3525 
Q 1475 4425 1675 5200 
L 2200 4875 
L 1950 4725 
Q 1550 3800 1425 3475 
L 1725 3300 
L 1525 3150 
L 1525 650 
z
M 2875 3225 
L 2875 2475 
L 4800 2475 
L 4800 3225 
L 2875 3225 
z
M 2875 2325 
L 2875 1575 
L 4800 1575 
L 4800 2325 
L 2875 2325 
z
M 2875 1425 
L 2875 675 
L 4800 675 
L 4800 1425 
L 2875 1425 
z
M 2875 525 
L 2875 -225 
L 4800 -225 
L 4800 525 
L 2875 525 
z
M 3550 4250 
Q 3575 4825 3550 5225 
L 4125 4950 
L 3925 4800 
L 3900 4250 
L 5025 4250 
L 5350 4575 
L 5825 4100 
L 3900 4100 
L 3875 3375 
L 4750 3375 
L 4975 3625 
L 5350 3300 
L 5125 3150 
L 5125 -225 
L 5350 -225 
L 5675 100 
L 6150 -375 
L 2450 -375 
Q 2125 -375 1850 -450 
L 1625 -225 
L 2550 -225 
L 2550 2550 
Q 2550 2850 2525 3575 
L 2875 3375 
L 3525 3375 
L 3550 4100 
L 2800 4100 
Q 2475 4100 2200 4025 
L 1975 4250 
L 3550 4250 
z
" transform="scale(0.015625)"/>
      <path id="SimSun-53ca" d="M 4625 4450 
L 4100 3075 
L 4925 3075 
L 5150 3300 
L 5525 2900 
L 5300 2775 
Q 4700 1550 4075 900 
Q 4500 475 5037 237 
Q 5575 0 6050 -50 
L 6050 -125 
Q 5700 -175 5550 -475 
Q 4450 0 3850 675 
Q 2875 -150 1025 -550 
L 1000 -450 
Q 2750 50 3650 900 
Q 2800 2125 2525 3425 
Q 2425 2575 1987 1550 
Q 1550 525 275 -475 
L 225 -400 
Q 1000 375 1425 1112 
Q 1850 1850 2062 2825 
Q 2275 3800 2325 4600 
L 1500 4600 
L 1275 4550 
L 1075 4750 
L 4250 4750 
L 4475 4975 
L 4900 4625 
L 4625 4450 
z
M 3600 3075 
Q 3825 3225 3975 3687 
Q 4125 4150 4250 4600 
L 2700 4600 
Q 2650 4275 2575 3575 
Q 3050 2075 3875 1150 
Q 4575 1925 4950 2925 
L 4100 2925 
L 3925 2750 
L 3600 3075 
z
" transform="scale(0.015625)"/>
      <path id="SimSun-6807" d="M 4775 2225 
Q 5725 1275 5825 1050 
Q 5925 825 5925 700 
Q 5925 525 5825 375 
Q 5725 225 5700 225 
Q 5575 225 5475 650 
Q 5300 1225 4700 2175 
L 4775 2225 
z
M 2750 4600 
L 4975 4600 
L 5275 4900 
L 5725 4450 
L 3175 4450 
L 2950 4400 
L 2750 4600 
z
M 3100 75 
Q 3775 -50 3900 -25 
Q 4025 0 4025 175 
L 4025 2950 
L 2800 2950 
L 2575 2900 
L 2375 3100 
L 5350 3100 
L 5675 3425 
L 6150 2950 
L 4400 2950 
L 4400 -25 
Q 4375 -425 3850 -600 
Q 3850 -300 3100 -50 
L 3100 75 
z
M 3125 2275 
L 3675 1950 
L 3425 1825 
Q 2800 700 2100 25 
L 2025 100 
Q 2725 1025 3125 2275 
z
M 1675 2725 
Q 1675 25 1700 -475 
L 1300 -625 
Q 1325 450 1325 2325 
Q 950 1450 350 700 
L 275 800 
Q 975 1925 1325 3475 
L 700 3475 
L 475 3425 
L 275 3625 
L 1325 3625 
Q 1325 4575 1300 5275 
L 1900 4975 
L 1675 4800 
L 1675 3625 
L 2000 3625 
L 2275 3900 
L 2700 3475 
L 1675 3475 
L 1675 2850 
Q 2150 2600 2312 2425 
Q 2475 2250 2475 2125 
Q 2475 2050 2400 1912 
Q 2325 1775 2275 1775 
Q 2200 1775 2100 2075 
Q 1925 2475 1675 2725 
z
" transform="scale(0.015625)"/>
      <path id="SimSun-51c6" d="M 2575 -600 
Q 2600 300 2600 550 
L 2600 3375 
Q 2200 2725 1675 2200 
L 1600 2250 
Q 2100 2950 2462 3812 
Q 2825 4675 2925 5175 
L 3450 4850 
L 3250 4725 
Q 3025 4275 2875 3950 
L 5175 3950 
L 5525 4300 
L 6025 3800 
L 4450 3800 
L 4450 2775 
L 5000 2775 
L 5325 3100 
L 5800 2625 
L 4450 2625 
L 4450 1450 
L 5100 1450 
L 5425 1775 
L 5900 1300 
L 4450 1300 
L 4450 100 
L 5250 100 
L 5600 450 
L 6100 -50 
L 2950 -50 
L 2950 -425 
L 2575 -600 
z
M 4100 3800 
L 2950 3800 
L 2950 2775 
L 4100 2775 
L 4100 3800 
z
M 2950 2625 
L 2950 1450 
L 4100 1450 
L 4100 2625 
L 2950 2625 
z
M 2950 1300 
L 2950 100 
L 4100 100 
L 4100 1300 
L 2950 1300 
z
M 3875 5150 
L 3950 5200 
Q 4675 4725 4650 4500 
Q 4625 4275 4525 4187 
Q 4425 4100 4375 4100 
Q 4275 4100 4250 4350 
Q 4175 4675 3875 5150 
z
M 500 4875 
Q 1350 4375 1337 4137 
Q 1325 3900 1225 3787 
Q 1125 3675 1075 3675 
Q 1000 3675 925 3925 
Q 825 4275 450 4825 
L 500 4875 
z
M 300 1825 
Q 625 1825 862 1887 
Q 1100 1950 2100 4500 
L 2200 4475 
Q 1750 3150 1500 2450 
Q 1225 1750 1200 1137 
Q 1175 525 1200 175 
Q 1200 -200 1012 -137 
Q 825 -75 750 37 
Q 675 150 675 300 
Q 675 450 700 550 
Q 775 850 825 1100 
Q 875 1350 787 1500 
Q 700 1650 300 1725 
L 300 1825 
z
" transform="scale(0.015625)"/>
      <path id="SimSun-5dee" d="M 1600 5100 
L 1650 5175 
Q 2300 4925 2400 4775 
Q 2500 4625 2500 4525 
Q 2500 4400 2437 4287 
Q 2375 4175 2325 4175 
Q 2250 4175 2175 4375 
Q 2025 4700 1600 5100 
z
M 3200 3925 
Q 3100 3450 3025 3175 
L 4650 3175 
L 4975 3500 
L 5450 3025 
L 3000 3025 
Q 2900 2675 2725 2275 
L 5075 2275 
L 5475 2675 
L 6025 2125 
L 2675 2125 
Q 1900 675 350 -200 
L 325 -100 
Q 1650 825 2325 2125 
L 950 2125 
L 600 2075 
L 400 2275 
L 2375 2275 
Q 2525 2650 2650 3025 
L 1550 3025 
L 1225 2975 
L 1025 3175 
L 2675 3175 
Q 2775 3575 2825 3925 
L 1250 3925 
L 900 3875 
L 700 4075 
L 3750 4075 
Q 4200 4925 4250 5250 
L 4800 4925 
Q 4550 4900 3900 4075 
L 5050 4075 
L 5425 4450 
L 5950 3925 
L 3200 3925 
z
M 2150 1275 
L 4650 1275 
L 4950 1575 
L 5400 1125 
L 3850 1125 
L 3850 -175 
L 5200 -175 
L 5550 175 
L 6050 -325 
L 2050 -325 
Q 1725 -325 1450 -400 
L 1225 -175 
L 3500 -175 
L 3500 1125 
L 2625 1125 
L 2350 1075 
L 2150 1275 
z
" transform="scale(0.015625)"/>
     </defs>
     <use xlink:href="#SimSun-6297"/>
     <use xlink:href="#SimSun-6298" transform="translate(100 0)"/>
     <use xlink:href="#SimSun-5f3a" transform="translate(200 0)"/>
     <use xlink:href="#SimSun-5ea6" transform="translate(300 0)"/>
     <use xlink:href="#SimSun-5e73" transform="translate(400 0)"/>
     <use xlink:href="#SimSun-5747" transform="translate(500 0)"/>
     <use xlink:href="#SimSun-503c" transform="translate(600 0)"/>
     <use xlink:href="#SimSun-53ca" transform="translate(700 0)"/>
     <use xlink:href="#SimSun-6807" transform="translate(800 0)"/>
     <use xlink:href="#SimSun-51c6" transform="translate(900 0)"/>
     <use xlink:href="#SimSun-5dee" transform="translate(1000 0)"/>
    </g>
   </g>
  </g>
 </g>
 <defs>
  <clipPath id="p645eddb106">
   <rect x="49.7225" y="27.015" width="659.4775" height="377.105"/>
  </clipPath>
 </defs>
</svg>
